<svg xmlns="http://www.w3.org/2000/svg" viewBox="0 0 1000 1000"><defs><style>.a{fill:#ef5a24;}.b{fill:#040102;}.c{fill:#fdfcfb;}</style></defs><title>honest-biscuits-logo</title><rect class="a" width="1000" height="1000"/><path class="b" d="M134.23,103A317.09,317.09,0,0,1,190,106.36c22.58,3.58,44.72,8.86,64.6,20.66,5.07,3,8.43,3,13.43,0,15.09-9.13,31.85-14,49-17.78,26.95-5.93,54.24-7.14,81.65-5.88,26.18,1.2,51.88,5.36,76.52,14.78a115.17,115.17,0,0,1,21.25,10.31c2.7,1.73,4.54,1.79,7.4,0,12.48-7.67,26.1-12.75,40.23-16.5,34-9,68.59-10.54,103.45-8,21.64,1.6,42.86,5.6,63.34,13a125.47,125.47,0,0,1,26,12.57,3.21,3.21,0,0,0,4.11,0c15.46-9.77,32.5-15.66,50.19-19.68a280.54,280.54,0,0,1,53.48-6.76,400.19,400.19,0,0,1,73.77,4.39,311.43,311.43,0,0,1,44,10c2.43.75,3.54,1.75,3.44,4.53-.23,6.55-.12,13.12,0,19.68,0,2.14-.15,3-2.7,2-18.11-6.74-36.92-10.58-56-13.11a353.27,353.27,0,0,0-52-3.38c-25.27.4-50.24,3.22-74.43,11-11.91,3.84-23.27,8.79-33.1,16.83-5.87,4.8-11.76,4.62-17.53-.15-9.72-8-21-12.94-32.89-16.67-30.24-9.5-61.33-12.1-92.83-10.62-21.47,1-42.65,4-63.16,10.75-11.8,3.85-23.08,8.78-32.79,16.82-5.14,4.26-11.08,4.46-16.05.37-15.08-12.41-33.06-18-51.61-22.23-20.79-4.72-42-6.39-63.24-6.11-26.75.35-53.14,3.5-78.55,12.37-10.62,3.71-20.77,8.44-29.44,15.91a12.29,12.29,0,0,1-15.59.51c-15.7-12.84-34.38-18.55-53.68-22.84-22.49-5-45.31-6.34-68.25-6-24,.39-47.84,1.62-71.45,6a160.42,160.42,0,0,0-21.45,5.33c-1.28.43-2.62.67-3.91,1.06s-1.89,0-1.88-1.44c0-7.29.08-14.59,0-21.87,0-2,1.41-2,2.62-2.35a258.9,258.9,0,0,1,38.84-7.62A478.52,478.52,0,0,1,134.23,103Z"/><path class="b" d="M126.4,329.54c20.54-.45,41,.06,61.39,3,20.86,3,41.18,8.05,60.29,17.23a120.26,120.26,0,0,1,11.35,6.48c1.23.77,2.14,1,3.38.26,22.1-14,46.78-20.23,72.26-23.93a326.35,326.35,0,0,1,72.59-2.08c20.4,1.6,40.44,5,59.9,11.41a129,129,0,0,1,30.23,13.91c1.7,1.1,2.84,1.24,4.69.08,16.41-10.35,34.56-16.22,53.38-20.18,31.52-6.65,63.37-7.82,95.37-4.84,23.49,2.19,46.5,6.75,68.34,16.08a107.35,107.35,0,0,1,17.61,9.31,2.89,2.89,0,0,0,3.66,0c18.79-11.84,39.61-18,61.24-22,31.8-5.89,63.76-6,95.81-2.84a325.29,325.29,0,0,1,65.67,12.94c1.68.53,2.36,1.25,2.34,3q-.1,10.63,0,21.25c0,1.75-.25,2.51-2.26,1.77-23.1-8.48-47.1-12.6-71.51-14.93A328.8,328.8,0,0,0,832,355c-20.77,1.83-41.18,5.57-60.69,13.28A88.46,88.46,0,0,0,747.33,382c-5.22,4.28-11.33,4.4-16.54.07-10.19-8.48-22.06-13.6-34.54-17.48-20.68-6.42-41.9-9.4-63.51-10.35a293.47,293.47,0,0,0-40.56.9c-24.53,2.3-48.57,6.79-70.79,18.17a63.9,63.9,0,0,0-12.45,8.22c-5.37,4.59-11.53,4.75-17,.29-12.2-9.92-26.47-15.45-41.4-19.49-26.15-7.07-52.86-9-79.81-8.31a257.84,257.84,0,0,0-48.59,5.76c-16.67,3.68-33,8.58-47.3,18.36-1.8,1.23-3.49,2.61-5.18,4-4.61,3.78-11.12,4.4-15.58.65C241.3,372,226.19,366.4,210.45,362.2c-26.67-7.11-53.91-8.93-81.4-8.2-14.36.37-28.72.82-43,2.31-17.09,1.78-34,4.6-50.37,10-1.79.58-2.33.33-2.31-1.62.08-7.09.11-14.17,0-21.25,0-2,1-2.38,2.52-2.81a280.65,280.65,0,0,1,41.65-7.91C93.75,330.77,110.06,329.93,126.4,329.54Z"/><path class="b" d="M499.63,619.57q231.09,0,462.18,0c4.5,0,4-.86,4.06,4.2,0,6.25-.11,12.5,0,18.75.06,2.29-.81,2.86-2.86,2.79-2.81-.11-5.62-.05-8.44-.05h-914c-7.21,0-7.21,0-7.2-7.12,0-5,.13-10,0-15-.1-2.7.46-4,3.51-3.65a69.94,69.94,0,0,0,7.8.05Z"/><path class="b" d="M129.72,216.3c24.62-.53,49.12.65,73.31,5.64C223,226,242.27,232,259.59,243.12a3.11,3.11,0,0,0,3.73-.14c22.7-14.24,48-20.3,74.16-24a324,324,0,0,1,58.57-2.48c25.57,1,50.71,4.81,75,13.28a121.33,121.33,0,0,1,26.66,12.73c1.61,1,2.85,1.32,4.73.14,15.53-9.68,32.57-15.44,50.32-19.48,26-5.93,52.46-7.64,79.07-6.77,26.1.86,51.76,4.52,76.59,13a131,131,0,0,1,28.38,13.38c1.66,1.06,2.85,1.14,4.47.11,15.74-10,33.11-15.72,51.15-19.83a270,270,0,0,1,38.52-5.82A356.82,356.82,0,0,1,879,216.8a387.32,387.32,0,0,1,59.35,7.72c8.63,1.84,17.16,4.12,25.59,6.76,1.41.44,2,1,2,2.58-.07,7.19-.08,14.38,0,21.56,0,2.31-.82,2.28-2.6,1.65-39.16-13.73-79.7-17.49-120.85-16.08a233.5,233.5,0,0,0-51.15,7.49c-14.21,3.72-28,8.52-40.12,17.24-1.18.85-2.33,1.75-3.45,2.67-5.61,4.62-11.86,4.8-17.32.19-8.4-7.09-18.09-11.76-28.35-15.29C666.94,241.17,630.71,239,594,241.74a233,233,0,0,0-42.11,6.9c-15.74,4.17-31,9.6-43.76,20.27a12.06,12.06,0,0,1-15.59.14c-10.62-8.95-23-14.26-36.11-18.29-18.09-5.59-36.67-8.33-55.52-9.49-29.06-1.78-57.84-.06-86.16,7-15.62,3.9-30.67,9.23-43.6,19.26-2.06,1.6-4,3.32-6.57,4A11.93,11.93,0,0,1,253.4,269c-10.65-9-23.15-14.21-36.24-18.19-28.38-8.64-57.55-10.66-87-10.16-21.78.37-43.47,1.63-65,5.12a184.46,184.46,0,0,0-29,7.09c-2.44.82-2.8.2-2.77-2,.08-6.66.13-13.33,0-20-.05-2.23.75-3.12,2.77-3.65a311.84,311.84,0,0,1,46.28-8.36C98.11,217.18,113.91,216.58,129.72,216.3Z"/><path class="b" d="M499.94,896H39.38c-6,0-6,0-6-6,0-5.73.06-11.46,0-17.18,0-1.77.5-2.42,2.29-2.34,2.7.14,5.42.07,8.12.07H960.5c5.37,0,5.38,0,5.39,5.39,0,5.93-.06,11.87,0,17.8,0,1.74-.49,2.43-2.29,2.33-2.39-.13-4.79,0-7.18,0Z"/><path class="c" d="M474.11,528.87c.82-6.38,0-11.77,0-17.15-.19-20-.6-40-.94-60-.13-7.38-.24-14.77-.52-22.16-.09-2.19.58-2.9,2.76-2.88,11.24.08,22.49.12,33.73,0,2.58,0,2.26,1.44,2.26,3q0,21.87,0,43.73,0,55,0,110c0,4.56,0,4.57-4.63,4.57-10.73,0-21.45-.06-32.18,0a4.53,4.53,0,0,1-4.47-2.58Q453.4,557,436.52,528.69c-7.31-12.22-14.37-24.56-20.71-37.31a5,5,0,0,0-2.36-2.74c0,1.88,0,3.47,0,5.06q.57,44.82,1.15,89.63a16.63,16.63,0,0,0,0,1.87c.28,2.11-.44,2.85-2.71,2.82-11-.14-22.08-.13-33.11,0-2.26,0-3-.47-3-2.9q.12-77.47,0-155c0-2.76.74-3.51,3.47-3.47,10.93.15,21.87.13,32.8,0a5.12,5.12,0,0,1,5.2,2.86c13.67,23.62,27.53,47.13,41.18,70.75,4.78,8.26,9.15,16.76,13.71,25.15C472.66,526.33,473.17,527.2,474.11,528.87Z"/><path class="c" d="M275.16,592.39c-23.77-.09-43.57-7.27-59.12-24.23-11.42-12.46-17.9-27.38-20.48-44-3.59-23.12-1-45.28,11.22-65.63,14.36-24,35.95-35.75,63.67-36.77,14.59-.53,28.59,1.93,41.71,8.49,16.51,8.25,27.88,21.29,35.09,38.15,5.34,12.5,8.42,25.61,8.25,39.11-.37,29.15-11,53.75-34.93,71.39-10.82,8-23.43,11.91-36.84,13.05C280.52,592.22,277.29,592.29,275.16,592.39Z"/><path class="c" d="M33.38,512.86q0-35.14,0-70.3c0-9.85,5.64-15.55,15.4-15.55,7.39,0,14.79.11,22.18-.06,2.57-.06,3.09.86,3.08,3.22-.08,17.08,0,34.16-.11,51.24,0,2.93.89,3.66,3.7,3.64q25.77-.17,51.55,0c2.78,0,3.52-.79,3.5-3.53-.12-16.87-.11-33.74-.06-50.61,0-4.45-.67-3.89,4.06-3.92,7.08-.05,14.17,0,21.25,0,9.07,0,15.11,5.91,15.14,15,.08,23.53,0,47.07,0,70.61q0,36.08.06,72.17c0,2.15-.47,3.21-2.95,3.18q-17.49-.15-35,0c-2.73,0-2.68-1.46-2.68-3.36q0-30.61,0-61.24c0-4,0-4-4.06-4-17,0-34,.05-50.93-.06-2.69,0-3.72.49-3.69,3.52.15,20.51,0,41,.13,61.55,0,2.6-.51,3.63-3.4,3.59-11.35-.17-22.7-.13-34,0-2.63,0-3.29-.79-3.28-3.33C33.41,560.77,33.38,536.82,33.38,512.86Z"/><path class="c" d="M752.24,422.84c23.94-.19,44.7,8.1,62.7,23.7,2,1.76,4,3.61,6.13,5.26,1.48,1.15,1.61,1.8-.05,3q-13.23,9.36-26.3,18.92c-1.59,1.16-2.44.4-3.41-.61-4.6-4.72-9.53-9.09-15.47-12-10.67-5.14-21.73-8.42-33.76-5.36a23.24,23.24,0,0,0-9.17,4.47c-4.4,3.61-6.76,8.25-5.65,14s5.52,8.61,10.69,10.22c7.3,2.27,15,2.44,22.45,3.74,11.78,2,23.64,3.72,35.05,7.41,21.64,7,32.9,26.66,28.31,49-4.93,24-20.34,37.87-43.29,43.46-23.32,5.68-46.65,5.12-69.33-3.66-12.58-4.87-22.68-13.21-31.48-23.28-1.66-1.89-1.31-2.83.8-4.12,8.58-5.28,17.07-10.72,25.52-16.2,1.74-1.13,2.61-1.3,4.33.4,15.91,15.78,35,21.33,56.89,16.76,6.53-1.36,12.35-4.59,15.68-10.82,3.74-7,1-14.35-6.2-17.67-6.83-3.17-14.16-4-21.47-5-12.88-1.71-25.84-3.14-38.16-7.54-10.87-3.88-20.11-10-25.77-20.47a39.68,39.68,0,0,1-4.57-18.61c-.3-22,9-38.24,29.15-47.74C727.34,424.72,739.6,422.74,752.24,422.84Z"/><path class="c" d="M534.13,507.18q0-38.74,0-77.5c0-1.74,0-3,2.39-3q36.07.1,72.16.07c13.86,0,27.71,0,41.56-.11,2.18,0,3.1,1,3.11,2.91.07,9,0,17.92.06,26.88,0,2-1.36,1.64-2.57,1.65l-50,.07c-7.7,0-15.41,0-23.12-.08-2.3,0-3.27.48-3.21,3.08.18,7.6.12,15.21,0,22.81,0,2.36.51,3.2,3.08,3.18,22.29-.11,44.58,0,66.87-.16,3.24,0,4,.94,4,4-.22,8-.14,16,0,24.06,0,2-.6,2.69-2.65,2.68-22.29-.06-44.58,0-66.87-.06-4.25,0-4.25-.05-4.26,4.17,0,10.2.13,20.41-.08,30.62-.05,3,1,3.57,3.71,3.56,26.14-.09,52.29,0,78.43-.14,2.85,0,3.85.74,3.8,3.62-.15,8.54-.11,17.08-.06,25.62,0,2.12-.7,2.88-2.92,2.88Q598.69,588,539.94,588c-5.81,0-5.81-.1-5.81-5.81Z"/><path class="c" d="M123.34,755.66c3.88,1.42,7.7,2.18,11.44,3.34,18.9,5.88,25.86,25,20.63,41.13C149.94,817,137.29,825,120.77,828.21c-7.3,1.43-14.7,1.44-22.09,1.46-20.51.06-41,0-61.54.06-2.5,0-3.38-.55-3.37-3.24q.12-67.63.06-135.26a14.67,14.67,0,0,0,0-1.87c-.32-2.47.74-3.23,3.18-3.19,8.43.12,16.86,0,25.3.06,16.75.16,33.52-.58,50.26.8,10.34.85,20.08,3.29,28.12,10.38,14.35,12.67,14.88,39.51-.81,51.05a37.32,37.32,0,0,1-12.53,6C126,754.84,124.69,755.26,123.34,755.66Z"/><path class="c" d="M904.87,682.8c19-.26,38.06,8.36,54.63,23.25,4.44,4,4.42,4.06-.34,7.46-6.5,4.66-13.09,9.19-19.51,14-1.76,1.31-2.75,1.1-4.17-.32-7.2-7.19-15.49-12.54-25.58-14.77-7.34-1.62-14.64-2.11-21.72,1.05-3.59,1.6-6.77,3.91-8.4,7.56-3.14,7-.34,13.31,6.89,16.09,6.4,2.46,13.26,2.49,19.9,3.66,12.57,2.22,25.4,3.49,37.25,8.62,13.86,6,21.08,16.93,21.52,31.93.65,22-12.69,40.51-33.78,47-22.25,6.89-44.49,6.59-66.43-1.36-11.81-4.28-21.21-12.07-29.27-21.58-.81-.95-1.13-1.55.19-2.39q12.24-7.74,24.4-15.6c1.44-.93,2.25-.16,3.16.83,8.83,9.53,20.08,14.25,32.67,15.93,9.24,1.23,18.38.59,26.48-4.7,4.46-2.92,7.48-6.93,6.87-12.73-.53-5.12-4-7.77-8.28-9.6a42.4,42.4,0,0,0-9.92-2.66c-13.63-2.22-27.56-2.93-40.74-7.46-11.77-4-21.76-10.58-25.87-23-5.75-17.35-1.14-40.53,18.75-52.11C875.24,685.15,887.93,682.73,904.87,682.8Z"/><path class="c" d="M297,833.12c-16.21,0-32.31-2.25-47-10.79-7.66-4.44-13.83-10.57-19.75-17-.94-1-.73-1.71.44-2.45q12.24-7.74,24.43-15.58c1.12-.71,1.87-.27,2.69.59,11.83,12.4,26.6,17.33,43.39,16.56,7.38-.34,14.39-2.37,19.69-8.06,5.81-6.25,4-15.1-3.63-18.6-6.29-2.89-13-3.51-19.66-4.49-11.91-1.76-23.87-3.11-35.31-7.35-17.59-6.5-27.09-22.15-24.94-40.94,2.39-20.94,15.77-34,35-39.06,32.29-8.57,60.32-.18,84.44,22.47,1.27,1.2,1.38,1.92-.14,3-7.65,5.38-15.28,10.79-22.82,16.32-1.78,1.3-2.77.56-3.95-.64-5.75-5.85-12.27-10.6-20.14-13.16-9.6-3.12-19.28-4.68-28.75.43a14.31,14.31,0,0,0-7.47,8.8c-1.64,5.94,1.56,11.56,7.6,13.91,6.4,2.5,13.25,2.44,19.88,3.66,12.56,2.29,25.34,3.62,37.29,8.52,14.07,5.78,22.43,19.77,21.74,35-1.06,23.24-16.7,40-38.49,45.56A127.68,127.68,0,0,1,297,833.12Z"/><path class="c" d="M555.88,736.21q0,20.92,0,41.87a46.52,46.52,0,0,0,1,11.16,15,15,0,0,0,8.52,10.5,36.26,36.26,0,0,0,27.92,1.59c8.7-2.93,11.78-10,12.38-18.44.39-5.39.35-10.82.36-16.24q0-38,0-75.93c0-4.46,0-4.49,4.41-4.5,9.48,0,19,0,28.43,0,2.26,0,3.32.46,3.3,3.09-.14,29,.05,57.91-.32,86.86-.17,13.31-3.13,26-12.17,36.53-8.25,9.59-18.95,15-31,18a73.92,73.92,0,0,1-48.55-3.84c-17.77-7.69-27.72-21.49-30-40.8a123.9,123.9,0,0,1-.66-14.66c0-27.18.09-54.37,0-81.55,0-3.11.9-3.76,3.83-3.7,9.68.19,19.37.17,29,0,2.69,0,3.55.63,3.53,3.46C555.8,705.17,555.88,720.69,555.88,736.21Z"/><path class="c" d="M375.1,758.08c.32-23,7.25-43.3,24.5-59.25a62,62,0,0,1,31.3-15.7c15.86-3,31-1.14,45.43,6.23,12.37,6.31,21.28,16,28.05,27.89.68,1.18.68,2-.77,2.66q-12.6,6.15-25.12,12.47c-1.66.84-2.14,0-2.74-1.24a34.82,34.82,0,0,0-11.08-13.65c-16.13-11.68-38.18-6.53-47.16,11.79-9.52,19.43-9.38,39.35,1,58.44,11.12,20.38,39.8,21.69,53.55,2.86a66.53,66.53,0,0,0,4-6.28c.87-1.55,1.84-1.66,3.29-.91,7.92,4.1,15.83,8.21,23.81,12.21,2,1,2.18,2,1.05,3.84-8.21,13.3-19.16,23.43-33.76,29.32a69.81,69.81,0,0,1-50.89,1.11c-20-7.07-32.68-21.51-39.72-41.08A89.72,89.72,0,0,1,375.1,758.08Z"/><path class="c" d="M883.61,523.57c0-20.42-.06-40.83.06-61.24,0-2.8-.8-3.5-3.51-3.47-11.56.14-23.12,0-34.68.05-3.9,0-3.87,0-3.84-4,0-4.47,0-8.95,0-13.43.1-8.94,5.82-14.58,14.7-14.58l94.66,0c9.46,0,14.85,5.42,14.86,14.91,0,4.68-.13,9.38.06,14.06.09,2.43-.65,3.13-3.09,3.1-11.77-.14-23.53,0-35.3-.15-2.8,0-3.46.84-3.45,3.54.09,40.83.06,81.65.15,122.48,0,2.74-.79,3.47-3.53,3.43-11.45-.16-22.91-.13-34.36,0-2.31,0-2.75-.76-2.74-2.87.07-20.61,0-41.23,0-61.85Z"/><path class="c" d="M757.39,771.94c0-18-.1-36,.09-54.05,0-3.11-1-3.48-3.66-3.45-10.3.13-20.62,0-30.93.11-2.33,0-3-.56-2.92-2.92.17-7.7.11-15.41,0-23.12,0-1.9.35-2.73,2.57-2.73q52.63.11,105.29,0c2.11,0,3,.61,3,2.82q-.14,11.57,0,23.12c0,2.17-.69,2.84-2.87,2.81-10.31-.1-20.62.05-30.93-.12-2.85,0-3.63.76-3.63,3.63.1,36,0,72.07.13,108.1,0,2.87-.75,3.66-3.6,3.61q-14.37-.25-28.74,0c-2.9,0-3.91-.63-3.88-3.77C757.47,808,757.39,790,757.39,771.94Z"/><path class="c" d="M177.37,757.93c0-22.7,0-45.4-.05-68.1,0-2.85.78-3.74,3.71-3.69,9.68.19,19.37.15,29.05,0,2.57,0,3.35.77,3.34,3.37q-.1,68.73,0,137.45c0,2.26-.74,2.76-2.83,2.74-10-.09-20-.11-30,0-2.63,0-3.28-.86-3.27-3.41.1-22.8.06-45.61.06-68.41Z"/><path class="c" d="M704.62,758.16c0,22.69-.06,45.38.08,68.07,0,3-.93,3.56-3.64,3.52-9.78-.14-19.57-.12-29.35,0-2.4,0-3.18-.62-3.18-3.13q.12-67.77.06-135.52c0-4.87,0-4.88,5-4.87,9.26,0,18.53.1,27.79,0,2.58,0,3.35.65,3.34,3.29-.1,22.89-.06,45.79-.06,68.69Z"/><path class="a" d="M315,511.49A55.74,55.74,0,0,1,308.67,537c-7.58,14.07-19.36,21.51-35.39,21.15-15.34-.35-26.74-8-32.93-21.8-9.11-20.26-9.52-41.09.84-61.06,12.16-23.44,39.73-25,57.05-11.5,7.09,5.53,11,13.16,13.61,21.5C314.17,492.69,315,500.33,315,511.49Z"/><path class="a" d="M88.38,769.05a163.35,163.35,0,0,1,17.14.44c6.34.66,11.64,3.25,13.77,9.54,2.26,6.66,2.31,13.43-3,19-3.58,3.71-8.52,4.77-13.38,5.12-10.9.8-21.83.26-32.75.41-1.75,0-2.09-.79-2.08-2.27,0-10,.11-20,0-30,0-2.2,1.24-2.26,2.81-2.26Z"/><path class="a" d="M87.61,713.18c5.61.42,12.42-.83,19.07,1,6.19,1.74,9.23,5.72,9.58,12.56s-2.59,11.74-8.13,14c-4.63,1.93-9.54,2-14.41,2.14-7.59.16-15.19,0-22.78.1-2.1,0-3-.62-2.92-2.85.11-8,.14-16,0-24,0-2.48.77-3.14,3.19-3C76.3,713.31,81.4,713.18,87.61,713.18Z"/></svg>