<svg xmlns="http://www.w3.org/2000/svg" viewBox="0 0 932.65 793.14"><defs><style>.a{fill:#fff;}</style></defs><title>honest-biscuits-logo-mono</title><path d="M963.65,895.54c-.89,0-1.86-.07-3-.07h-2.09l-2.08,0H39.38c-2.77,0-4.3,0-4.9-.61s-.61-2.14-.61-4.92c0-1.71,0-3.43,0-5.14,0-4,0-8,0-12.05a2.2,2.2,0,0,1,.33-1.52,1.63,1.63,0,0,1,1.16-.31h.28c1.15.06,2.39.08,4,.08H960.5c2.47,0,3.82,0,4.35.52s.53,1.9.54,4.37c0,2,0,4,0,5.93,0,3.9,0,7.92,0,11.88a2.19,2.19,0,0,1-.34,1.52,1.62,1.62,0,0,1-1.13.31Zm-519.92-61.9a71.63,71.63,0,0,1-23.91-4.24C401,822.75,387.75,809,380.41,788.62c-3.26-9.06-4.83-19-4.81-30.54.35-24.79,8.31-44.06,24.34-58.89A61.79,61.79,0,0,1,431,683.63a76.61,76.61,0,0,1,14.11-1.35,67.69,67.69,0,0,1,31,7.52c11.45,5.85,20.56,14.91,27.84,27.69a1.73,1.73,0,0,1,.34,1.2c-.08.26-.38.52-.9.77-8.68,4.23-17.14,8.43-25.13,12.47a2.17,2.17,0,0,1-.94.3c-.44,0-.69-.38-1.12-1.3A35.45,35.45,0,0,0,465,717.09a32.55,32.55,0,0,0-19.19-6.34,32,32,0,0,0-28.71,18.31c-9.76,19.93-9.41,39.74,1.05,58.9A31.28,31.28,0,0,0,446,804.4a32.54,32.54,0,0,0,26.52-13.52,64.68,64.68,0,0,0,4.08-6.33c.56-1,1-1.11,1.37-1.11a3,3,0,0,1,1.26.39l2.13,1.11c7.09,3.67,14.42,7.47,21.69,11.1.85.43,1.31.83,1.43,1.26a2.63,2.63,0,0,1-.59,1.88c-8.62,14-19.58,23.49-33.52,29.12a71,71,0,0,1-26.62,5.34Zm456.35-.9a101.75,101.75,0,0,1-34.78-6.23c-10.59-3.84-20.09-10.85-29.06-21.43-.32-.38-.62-.76-.58-1s.12-.31.66-.65c8.63-5.46,17.18-11,24.4-15.61a1.77,1.77,0,0,1,.93-.34c.55,0,1,.47,1.59,1.09,8.32,9,19.1,14.24,33,16.09a57.32,57.32,0,0,0,7.6.53c7.45,0,13.74-1.74,19.22-5.31,5.27-3.44,7.66-7.88,7.1-13.2-.61-5.9-4.91-8.45-8.59-10a41.66,41.66,0,0,0-10-2.69c-3.88-.64-7.84-1.15-11.67-1.65-9.64-1.26-19.6-2.56-29-5.79-13.89-4.77-22-12-25.55-22.65-5.63-17-1.07-40.11,18.52-51.52,10.93-6.36,23-9.08,40.33-9.08h1.56c18.13,0,36.62,8,53.45,23.13,1.9,1.71,3.16,2.84,3.12,3.56s-1.38,1.67-3.41,3.13-4.35,3.09-6.53,4.63c-4.28,3-8.71,6.15-13,9.34a3.11,3.11,0,0,1-1.73.78,2.74,2.74,0,0,1-1.79-1.05c-8-7.95-16.41-12.83-25.82-14.91a48.51,48.51,0,0,0-10.4-1.28A28.1,28.1,0,0,0,888,713c-4.33,1.93-7.16,4.49-8.65,7.82a12.29,12.29,0,0,0-.51,9.87c1.27,3.06,3.92,5.44,7.68,6.89,4.41,1.69,9.08,2.25,13.59,2.79,2.11.26,4.29.52,6.4.89,2.5.45,5,.85,7.53,1.26,9.92,1.59,20.18,3.24,29.61,7.33,13.64,5.92,20.78,16.51,21.22,31.48.64,21.79-12.48,40.06-33.43,46.55A105.91,105.91,0,0,1,900.08,832.74Zm-603.25-.12c-19.16,0-34-3.41-46.57-10.72-7.69-4.46-14-10.77-19.63-16.92-.33-.36-.49-.65-.46-.86s.3-.51.8-.83c7.12-4.5,14.33-9.11,21.3-13.57l3.13-2a1.49,1.49,0,0,1,.79-.28c.37,0,.74.23,1.27.79C268.09,799.37,281.69,805,297.88,805c1.1,0,2.22,0,3.35-.08,8.71-.4,15.27-3.09,20-8.22a11.81,11.81,0,0,0-3.79-19.39c-5.49-2.53-11.37-3.35-17.05-4.15-.92-.12-1.83-.25-2.75-.39l-4.32-.62c-10.26-1.47-20.88-3-30.89-6.69-17.3-6.41-26.74-21.89-24.62-40.42,2.24-19.58,14.53-33.3,34.62-38.63a93.69,93.69,0,0,1,24-3.28c21.67,0,41.83,8.62,59.94,25.63.58.54.84.92.82,1.19s-.33.61-.91,1c-6.85,4.81-14.91,10.52-22.83,16.33a2.53,2.53,0,0,1-1.41.59c-.6,0-1.15-.44-1.88-1.18-6.48-6.59-13.14-10.94-20.34-13.28-6.11-2-11-2.92-15.54-2.92a28,28,0,0,0-13.61,3.38A14.74,14.74,0,0,0,273,723c-1.68,6.07,1.57,12,7.89,14.51,4.34,1.69,8.93,2.23,13.36,2.75,2.18.26,4.43.53,6.62.93,2.69.49,5.43.94,8.08,1.38,9.72,1.62,19.77,3.28,29.11,7.12,13.72,5.62,22.13,19.17,21.43,34.52-1,22.09-15.61,39.37-38.12,45.09A129.11,129.11,0,0,1,297,832.62Zm283,0a73.81,73.81,0,0,1-29.41-6.22C533,818.86,523,805.27,520.73,786a123.1,123.1,0,0,1-.66-14.6q0-13.11,0-26.22c0-18.13,0-36.89-.05-55.33,0-1.39.18-2.21.61-2.63s1.11-.58,2.38-.58h.33c4.8.09,9.87.14,15.07.14,4.49,0,9.06,0,14-.1h.2a3.15,3.15,0,0,1,2.26.55,3.38,3.38,0,0,1,.56,2.41c-.11,11.53-.1,23.26-.08,34.59,0,4,0,8,0,12v9.61q0,16.13,0,32.26a47.32,47.32,0,0,0,1.06,11.28,15.52,15.52,0,0,0,8.8,10.83,37.11,37.11,0,0,0,16,3.7,38.66,38.66,0,0,0,12.31-2.08c7.83-2.64,12-8.82,12.72-18.89.35-4.88.36-9.86.36-14.67v-1.6q0-26.14,0-52.28V690.72c0-2,0-3.14.41-3.57s1.58-.42,3.5-.43H627q6,0,12,0h.1a3.05,3.05,0,0,1,2.17.52,2.9,2.9,0,0,1,.52,2.07c0,10.86-.06,21.91-.06,32.59,0,17.79,0,36.18-.26,54.27-.19,15.16-4.13,27-12.05,36.2-7.47,8.69-17.52,14.54-30.74,17.88A76.89,76.89,0,0,1,579.85,832.62Zm210.09-3.36c-4.66-.08-9.46-.13-14.28-.13s-9.59,0-14.48.13h-.26a3.44,3.44,0,0,1-2.49-.61,3.7,3.7,0,0,1-.62-2.65c.12-13.34.1-26.91.09-40q0-7,0-14t0-14c0-13.14,0-26.73.1-40.09,0-1.56-.24-2.53-.84-3.13a4.06,4.06,0,0,0-3-.82h-.29c-4,0-7.94.06-11.26.06h-8.18c-3.39,0-7.41,0-11.49.06h-.16c-1,0-1.56-.13-1.85-.43a2.85,2.85,0,0,1-.41-2c.18-8,.1-16,0-23.13,0-1,.1-1.53.38-1.82a2.37,2.37,0,0,1,1.67-.41q25.52.06,51,.05,27.16,0,54.33,0a2.77,2.77,0,0,1,2,.5,2.54,2.54,0,0,1,.46,1.82c-.09,7.95-.09,15.73,0,23.13a2.61,2.61,0,0,1-.44,1.85,2.58,2.58,0,0,1-1.82.45c-3.41,0-6.71,0-10,0h-7.94c-3.9,0-8.51,0-13.07-.09h-.23a4,4,0,0,0-3,.87c-.62.63-.89,1.6-.89,3.26q.08,26.48.06,53c0,18.07,0,36.77.07,55.15,0,1.37-.17,2.14-.59,2.55a3.13,3.13,0,0,1-2.26.56Zm-88.87,0c-4.51-.07-9.27-.1-14.15-.1s-9.81,0-15.22.09h-.14a2.83,2.83,0,0,1-2-.49,3,3,0,0,1-.52-2.14c.06-33.62.06-67.81.06-100.86V691.09c0-4.37,0-4.37,4.13-4.37h.34l7.88,0,8.69,0c4.33,0,7.9,0,11.23-.08h.19a3,3,0,0,1,2.11.52,3.22,3.22,0,0,1,.53,2.26c-.08,17.7-.07,35.69-.06,53.09v15.61q0,8.08,0,16.17c0,17,0,34.6.09,51.9a3.45,3.45,0,0,1-.58,2.47,3.25,3.25,0,0,1-2.32.55Zm-520.61,0a2.87,2.87,0,0,1-2.08-.54,3.29,3.29,0,0,1-.55-2.37c.07-17.61.07-35.51.06-52.83V757.43h0V742c0-17.08,0-34.76-.06-52.14a3.61,3.61,0,0,1,.61-2.58,3.28,3.28,0,0,1,2.34-.6H181c4.41.09,9,.13,14.06.13,4.49,0,9.26,0,15-.1h.14a2.92,2.92,0,0,1,2.13.54,3.25,3.25,0,0,1,.57,2.33c-.07,44.19-.07,90.43,0,137.45a2.68,2.68,0,0,1-.43,1.83,2.53,2.53,0,0,1-1.79.42h-.11c-5.65-.05-10.71-.07-15.46-.07-5.16,0-9.91,0-14.54.09Zm-143.39,0a3.26,3.26,0,0,1-2.27-.52,3.11,3.11,0,0,1-.53-2.22c.06-36.1.06-72.81.06-108.31V691.23c0-.23,0-.45,0-.68a5.9,5.9,0,0,0,0-1.26,2.53,2.53,0,0,1,.33-2,2.87,2.87,0,0,1,2.19-.6H37c2.83,0,5.66.05,8.49.05l10.45,0,6.36,0c1.83,0,3.65,0,5.47,0,3.19,0,6.37,0,9.56,0s6.36,0,9.55,0c7.56,0,16.51.1,25.64.86,12.38,1,21,4.18,27.84,10.25,7.14,6.31,11.13,16.45,10.65,27.1-.43,9.71-4.6,18.15-11.43,23.17A36.35,36.35,0,0,1,127.26,754c-.93.25-1.86.53-2.78.8l-2.74.82,1.42.52c2.36.86,4.72,1.49,7,2.09,1.47.39,3,.8,4.47,1.26A30.29,30.29,0,0,1,153,774.61a33.21,33.21,0,0,1,1.9,25.37c-4.92,15.11-16.12,24.19-34.26,27.74-7.2,1.41-14.62,1.43-21.8,1.45h-.2q-9.5,0-19,0H60.6q-11.73,0-23.46,0ZM74.77,804c2.21,0,4.42,0,6.64,0s4.42,0,6.64,0c4.07,0,9.44,0,14.86-.45,4.32-.31,9.78-1.2,13.71-5.27,4.79-5,5.84-11.51,3.15-19.47-2-5.78-6.74-9.11-14.2-9.87A112.39,112.39,0,0,0,94,768.53H70.9a3.48,3.48,0,0,0-2.64.68,2.82,2.82,0,0,0-.66,2.09c.05,9.05,0,18.27,0,27.18v2.76a2.9,2.9,0,0,0,.62,2.16,2.51,2.51,0,0,0,1.88.62C71.68,804,73.23,804,74.77,804Zm-4-91.37a3.32,3.32,0,0,0-2.52.76,3.73,3.73,0,0,0-.77,2.8c.13,7.24.13,15.1,0,24a3.47,3.47,0,0,0,.76,2.58,3.39,3.39,0,0,0,2.55.77h.11l6.4,0h7c2.77,0,6,0,9.4-.08,4.85-.11,9.86-.21,14.6-2.18,5.78-2.4,8.78-7.56,8.43-14.52s-3.52-11.21-9.94-13a35.16,35.16,0,0,0-9.4-1.08c-1.23,0-2.45,0-3.64.06s-2.23.06-3.31.06-2,0-2.83-.09h-.31l-5.09,0-4.56,0c-2.57,0-4.56,0-6.45-.1Zm892.26-67.79c-1.16-.05-2.39-.07-4-.07l-4.48,0h-914c-3.36,0-5.21,0-6-.75s-.74-2.56-.74-5.85c0-1.39,0-2.77,0-4.15,0-3.57.05-7.25-.08-10.88-.06-1.46.1-2.27.52-2.71a2.19,2.19,0,0,1,1.6-.48c.25,0,.53,0,.83,0a26.81,26.81,0,0,0,3,.15c.81,0,1.62,0,2.43,0s1.61,0,2.41,0h579.1l338.08,0c.67,0,1.23,0,1.69,0h.86a1.67,1.67,0,0,1,.82.12,5.66,5.66,0,0,1,.19,2.34v1.29c0,2.37,0,4.73,0,7.09,0,3.83,0,7.78.06,11.67a2.54,2.54,0,0,1-.44,1.85,2.13,2.13,0,0,1-1.59.43ZM275.15,591.89c-24.77-.1-44-8-58.74-24.07-10.83-11.82-17.68-26.53-20.35-43.74-3.88-25-.23-46.31,11.15-65.3,13.91-23.2,35.19-35.49,63.25-36.52,1.28-.05,2.57-.07,3.82-.07a83.45,83.45,0,0,1,37.65,8.5c15.74,7.87,27.47,20.62,34.86,37.9,5.6,13.12,8.37,26.21,8.21,38.91-.39,30.42-12.07,54.31-34.72,71-10,7.38-22.33,11.74-36.59,13-2.28.2-4.6.29-6.47.36Zm-1.62-137.13c-14.13,0-26.09,7.4-32.79,20.31-10.13,19.52-10.42,40.22-.85,61.5,6.34,14.1,17.88,21.74,33.38,22.09h1.13c15.37,0,27.05-7.21,34.71-21.42a56.7,56.7,0,0,0,6.34-25.76c.08-11.36-.82-19-3.13-26.34-3.12-9.95-7.5-16.86-13.77-21.75A40.94,40.94,0,0,0,273.53,454.76ZM750.69,591.27a108.56,108.56,0,0,1-39.37-7.34C700.07,579.58,689.84,572,680,560.79c-.69-.78-1-1.35-.91-1.78s.56-1,1.6-1.59c7.48-4.6,15.35-9.59,25.54-16.2a3.71,3.71,0,0,1,1.81-.78c.53,0,1.1.33,1.89,1.12C722.3,553.8,736.73,560,752.83,560a71.19,71.19,0,0,0,14.47-1.56c7.54-1.57,12.93-5.3,16-11.07a13,13,0,0,0,1.1-10.36,13.78,13.78,0,0,0-7.54-8c-6.49-3-13.51-3.93-20.3-4.82l-4.65-.61c-11.55-1.51-23.5-3.07-34.71-7.08-12.14-4.34-20.48-10.95-25.5-20.23a39.41,39.41,0,0,1-4.51-18.39c-.31-22.18,9.4-38.09,28.86-47.28,10.35-4.89,21.91-7.27,35.33-7.27H753c22.81,0,43.53,7.94,61.58,23.58l1.81,1.59c1.39,1.25,2.84,2.53,4.34,3.7.24.18,1,.75,1,1.1,0,.17-.18.49-1,1.06-9.13,6.46-18,12.82-26.31,18.92a2.06,2.06,0,0,1-1.16.49c-.55,0-1-.45-1.6-1-3.86-4-9.12-8.93-15.61-12.06-9.32-4.5-17.12-6.59-24.55-6.59a38.9,38.9,0,0,0-9.54,1.19,23.89,23.89,0,0,0-9.37,4.58c-4.93,4-6.89,8.92-5.82,14.49,1,5.2,4.5,8.57,11,10.6a81.81,81.81,0,0,0,14.64,2.67c2.59.31,5.27.63,7.88,1.08,1.82.32,3.65.63,5.47.93,9.79,1.66,19.9,3.36,29.51,6.47,21.27,6.88,32.51,26.33,28,48.41-4.69,22.79-19.13,37.28-42.92,43.07A125.77,125.77,0,0,1,750.69,591.27Zm170-3.47c-5.4-.07-10.89-.11-16.81-.11-5.52,0-11.26,0-17.57.1h0c-1,0-1.53-.13-1.81-.42s-.42-.86-.42-1.94c.06-16.06,0-32.38,0-48.16v-14.2h0V508.9c0-15.26,0-31,.07-46.57,0-1.57-.24-2.51-.85-3.12a4,4,0,0,0-3-.85h-.18c-4.2.05-8.81.07-14.52.07H845c-1.37,0-2.22,0-2.52-.32s-.32-1.36-.31-3.07c0-2.18,0-4.27,0-6.36,0-2.39,0-4.78,0-7.17.1-8.68,5.54-14.08,14.19-14.08l94.67,0c9.12,0,14.35,5.25,14.36,14.41,0,1.44,0,2.89,0,4.33,0,3.2-.05,6.5.08,9.75A2.85,2.85,0,0,1,965,458a2.81,2.81,0,0,1-2,.5h-.13c-5.63-.07-11.36-.07-16.89-.07-6,0-12.28,0-18.41-.08h-.18a3.89,3.89,0,0,0-2.92.85c-.62.61-.87,1.54-.87,3.2q.07,31.29.09,62.58,0,29.94.07,59.89a3.33,3.33,0,0,1-.57,2.38,3.17,3.17,0,0,1-2.26.55Zm-263.28-.25q-35.82-.06-71.62,0l-45.88,0c-5.31,0-5.31,0-5.31-5.31V488.6q0-29.46,0-58.92c0-1,0-1.71.38-2.08a2.13,2.13,0,0,1,1.49-.39c19.93.06,39.89.07,58.5.07h13.68c14.74,0,28,0,41.56-.11,1.81,0,2.6.75,2.61,2.42,0,5.13,0,10.25,0,15.38q0,5.75,0,11.49a1.56,1.56,0,0,1-.24,1,1.13,1.13,0,0,1-.82.2l-.47,0h-.54l-18.91,0-31.09.05h-8.93c-4.16,0-9.1,0-14.18-.09h-.21a3.78,3.78,0,0,0-2.75.8,3.66,3.66,0,0,0-.76,2.8c.15,6.62.15,13.65,0,22.78a3.92,3.92,0,0,0,.75,2.89,3.67,3.67,0,0,0,2.77.8c10.29-.05,20.68-.06,30.73-.06,11.86,0,24.14,0,36.2-.1h.11c1.43,0,2.28.21,2.73.67s.65,1.33.61,2.85c-.22,8-.15,16,0,24.08a2.39,2.39,0,0,1-.4,1.75,2.42,2.42,0,0,1-1.72.42q-22.34-.06-44.61,0H578.31c-4.12,0-4.25.46-4.26,4.67q0,4.29,0,8.6c0,7.21,0,14.68-.1,22a4.24,4.24,0,0,0,.85,3.18,4.53,4.53,0,0,0,3.29.9q18.32-.08,36.48-.07c13.77,0,28,0,42-.08,1.45,0,2.26.2,2.7.65a3.37,3.37,0,0,1,.6,2.46c-.14,8.34-.11,16.55-.06,25.63a2.6,2.6,0,0,1-.47,1.88,2.7,2.7,0,0,1-1.93.5Zm-182.94,0a4,4,0,0,1-3.95-2.33c-11.9-20.24-22.63-38.48-33.6-56.79-8.78-14.65-15.16-26.15-20.69-37.27l-.12-.26a5.25,5.25,0,0,0-2.46-2.7l-.73-.4v2.62c0,1.15,0,2.22,0,3.29l1.15,89.63c0,.18,0,.37,0,.56a10.59,10.59,0,0,0,.05,1.37c.12.89.05,1.45-.23,1.76a2.48,2.48,0,0,1-1.86.49h-.12c-5.65-.07-11.52-.1-17.44-.1-5.08,0-10.35,0-15.68.07h-.13c-1,0-1.61-.13-1.91-.43a2.81,2.81,0,0,1-.46-2c.09-53.23.09-105.36,0-155,0-1.31.16-2,.56-2.43a3.1,3.1,0,0,1,2.22-.55h.18c5.26.07,10.82.11,16.54.11,5.17,0,10.5,0,16.28-.09h.12a4.59,4.59,0,0,1,4.64,2.62c6.57,11.34,13.29,22.86,19.79,34,7,12,14.3,24.48,21.39,36.75,3.25,5.63,6.37,11.46,9.39,17.11,1.43,2.68,2.86,5.36,4.32,8,.31.57.63,1.14,1.07,1.92l1.59,2.81.2-1.49a65.77,65.77,0,0,0,.17-12.25c-.09-1.71-.17-3.33-.19-5-.15-15.65-.44-31.56-.71-46.94l-.27-15.36c-.11-6.5-.23-13.22-.48-19.83a2.64,2.64,0,0,1,.4-1.91,2.45,2.45,0,0,1,1.78-.45c7.34,0,13.27.08,18.71.08s10.36,0,15.11-.08h0a2,2,0,0,1,1.47.37c.31.32.3.94.28,1.67V432q0,20.76,0,41.51l0,83v26.93c0,2.07,0,3.21-.43,3.64s-1.59.43-3.7.43l-17.32,0c-5.85,0-10.57,0-14.86.06Zm-438,0a2.87,2.87,0,0,1-2.09-.53c-.38-.37-.54-1.06-.53-2.3.06-18.25.06-36.81.05-54.76v-87.4c0-9.56,5.43-15.05,14.9-15.05h6.46l6.37,0c3.64,0,6.62,0,9.36-.09h.21a2.57,2.57,0,0,1,1.86.48c.36.36.51,1,.5,2.24,0,7.55,0,15.11,0,22.67,0,9.36,0,19-.08,28.56,0,1.63.26,2.6.9,3.25s1.58.9,3.2.9h.1c8.67-.06,17.3-.09,25.64-.09,8.74,0,17.46,0,25.91.1h.1a4,4,0,0,0,3.05-.87c.61-.62.87-1.56.85-3.16-.13-17.89-.1-35.62-.06-50.61,0-.57,0-1.07,0-1.49a4.12,4.12,0,0,1,.13-1.77c.16-.17.94-.17,1.37-.17h2.08c2.82,0,5.65,0,8.48,0l10.29,0h2.47c8.86,0,14.61,5.73,14.64,14.54.06,16.8,0,33.88,0,50.4,0,6.74,0,35.46,0,35.46q0,28.46.05,56.92a3,3,0,0,1-.51,2.18,2.61,2.61,0,0,1-1.86.5c-6.17,0-12.13-.08-17.79-.08-5.9,0-11.72,0-17.28.09h0a2.41,2.41,0,0,1-1.73-.45c-.44-.44-.44-1.31-.44-2.31,0-17.7,0-35.31,0-52.92v-8.42c0-2.12,0-3.19-.66-3.84s-1.74-.64-3.9-.64H103.46c-7.07,0-16.4,0-25.84-.07H77.5c-1.41,0-2.5.15-3.21.87a4.19,4.19,0,0,0-.86,3.15c.08,11.57.08,23.33.09,34.7q0,13.42,0,26.85c0,1.39-.16,2.13-.56,2.53a3.06,3.06,0,0,1-2.18.56h-.16c-5-.07-10.25-.11-15.61-.11-5.88,0-11.92,0-18.45.13ZM261.09,384.78a10.32,10.32,0,0,1-6.72-2.4c-13.87-11.66-30.69-17.17-43.79-20.66-21.11-5.63-44.2-8.37-70.59-8.37-3.55,0-7.23,0-11,.15-15.25.4-29,.85-43.06,2.31-20,2.08-36,5.25-50.47,10a3.87,3.87,0,0,1-1.15.26c-.21,0-.27-.07-.29-.09s-.23-.42-.22-1.31c.1-8.27.1-15,0-21.26,0-1.57.57-1.88,2.16-2.31a277.26,277.26,0,0,1,41.56-7.9c14.33-1.69,29.86-2.69,48.86-3.15,4.39-.1,8.47-.14,12.48-.14a337.82,337.82,0,0,1,48.82,3.16c23.86,3.47,43,8.93,60.14,17.19a118.38,118.38,0,0,1,11.31,6.46,4.33,4.33,0,0,0,2.22.8,3.13,3.13,0,0,0,1.69-.55c19-12,41.26-19.38,72.06-23.85a314.29,314.29,0,0,1,44.95-3.18c9,0,18.24.37,27.53,1.1,22.2,1.74,41.76,5.47,59.79,11.38,11.89,3.91,21.74,8.44,30.11,13.86a4.84,4.84,0,0,0,2.67,1,4.78,4.78,0,0,0,2.56-.89c14.44-9.11,31.35-15.5,53.21-20.11a304.2,304.2,0,0,1,62.64-6.38c10.61,0,21.57.52,32.58,1.55,26.38,2.45,48.68,7.7,68.19,16a105,105,0,0,1,17.54,9.26,3.8,3.8,0,0,0,2.12.75,3.84,3.84,0,0,0,2.07-.7c16.27-10.25,35.67-17.21,61.07-21.92A303.51,303.51,0,0,1,858,329.94,398.38,398.38,0,0,1,897.84,332c24.12,2.39,45.57,6.62,65.57,12.91,1.56.49,2,1.06,2,2.54-.07,6.63-.07,13.59,0,21.26,0,.33,0,1.22-.23,1.46,0,0-.08.09-.3.09a3.6,3.6,0,0,1-1.06-.25c-20.4-7.5-43.17-12.25-71.64-15-11.72-1.12-23.18-1.69-34.06-1.69-8.91,0-17.72.38-26.21,1.13-23.83,2.1-43.16,6.33-60.82,13.31A88.85,88.85,0,0,0,747,381.59a12.74,12.74,0,0,1-8,3.15,12.13,12.13,0,0,1-7.86-3.08c-8.89-7.39-19.92-13-34.71-17.57-19.14-5.94-40-9.33-63.64-10.37-4.73-.21-9.47-.32-14.06-.32-9,0-18,.41-26.56,1.22-20.19,1.9-46.5,5.68-71,18.23a63.28,63.28,0,0,0-12.54,8.28,12.81,12.81,0,0,1-8.36,3.42,12.66,12.66,0,0,1-8-3.14c-10.64-8.64-23.47-14.68-41.59-19.58-21.08-5.7-43.88-8.47-69.71-8.47-3.34,0-6.78.05-10.25.14A259,259,0,0,0,322,359.28c-14.93,3.29-32.25,8.05-47.47,18.43-1.77,1.2-3.41,2.53-5.22,4A13.07,13.07,0,0,1,261.09,384.78Zm.12-113.29a11.39,11.39,0,0,1-7.49-2.86c-9.28-7.8-20.51-13.44-36.41-18.28-23-7-48.09-10.25-79-10.25-2.65,0-5.4,0-8.18.07-25.52.43-46.19,2.06-65.06,5.13A184.09,184.09,0,0,0,36,252.41a5.2,5.2,0,0,1-1.44.32h0a.54.54,0,0,1-.42-.12,3.25,3.25,0,0,1-.26-1.75c.08-6.36.14-13.15,0-20-.05-1.93.51-2.66,2.4-3.16a312.86,312.86,0,0,1,46.21-8.34c17.17-1.83,34.3-2.32,47.31-2.55,3.59-.08,7.12-.12,10.52-.12,23.41,0,43.91,1.88,62.68,5.75,23.93,4.92,41.32,11.43,56.39,21.11a3.68,3.68,0,0,0,2,.64,4.21,4.21,0,0,0,2.28-.78c24.56-15.41,52.43-20.87,74-23.91a300.44,300.44,0,0,1,42.38-2.81c5.18,0,10.6.11,16.1.33,28,1.13,52.51,5.46,74.83,13.25a120.47,120.47,0,0,1,26.55,12.68,4.9,4.9,0,0,0,2.74,1,4.8,4.8,0,0,0,2.53-.84c13.78-8.6,29.73-14.77,50.16-19.42,20.6-4.69,42.23-7,66.15-7,4.17,0,8.47.07,12.79.21,28.59.94,53.6,5.17,76.45,12.94a129.29,129.29,0,0,1,28.27,13.34,4.81,4.81,0,0,0,2.61.91,4.49,4.49,0,0,0,2.4-.81c13.67-8.67,29.87-14.95,51-19.77a271.08,271.08,0,0,1,38.45-5.8c8.57-.68,17.49-1,26.53-1,6.95,0,14.17.21,21.46.61A384.38,384.38,0,0,1,938.22,225c8.27,1.76,16.86,4,25.54,6.75,1.29.4,1.65.86,1.63,2.1-.08,8.07-.06,15.13,0,21.57,0,1-.15,1.31-.26,1.41s-.09.1-.31.1a4.73,4.73,0,0,1-1.36-.34c-31.44-11-65.83-16.39-105.15-16.39-5.16,0-10.5.1-15.89.28A234.61,234.61,0,0,0,791.2,248c-12.62,3.3-27.27,7.94-40.28,17.31-1.13.82-2.27,1.7-3.48,2.69a13.46,13.46,0,0,1-8.58,3.45,12.45,12.45,0,0,1-8.1-3.25c-7.59-6.41-16.65-11.3-28.51-15.39-24.7-8.51-51.2-12.65-81-12.65-8.71,0-17.9.36-27.33,1.08a231.57,231.57,0,0,0-42.2,6.91c-14.14,3.75-30.43,9.1-44,20.38a12,12,0,0,1-7.64,2.81,11.34,11.34,0,0,1-7.3-2.67c-9.31-7.84-20.5-13.51-36.3-18.39-16.56-5.12-34.76-8.23-55.63-9.51-7.06-.43-14.07-.65-20.83-.65a267.36,267.36,0,0,0-65.48,7.67c-12.93,3.23-29.59,8.34-43.79,19.35l-.75.59a15.8,15.8,0,0,1-5.64,3.33A12.68,12.68,0,0,1,261.21,271.49ZM739,158.16c-2.83,0-5.71-1.2-8.56-3.55-8.47-7-19-12.34-33.06-16.76-23.62-7.43-48.75-11-76.84-11-5.25,0-10.69.13-16.16.39-23.81,1.12-44.51,4.64-63.29,10.77-14.3,4.67-24.47,9.88-33,16.92a12.73,12.73,0,0,1-8,3.2,11.42,11.42,0,0,1-7.36-2.83c-15.62-12.85-34.14-18.33-51.82-22.34a263.45,263.45,0,0,0-58.87-6.15l-4.49,0c-30.2.4-55.94,4.45-78.7,12.4-12.66,4.42-22.07,9.5-29.6,16a12.15,12.15,0,0,1-7.95,2.94,11,11,0,0,1-7-2.43c-16.19-13.24-35.47-18.86-53.89-23s-38.34-6-61.3-6q-3.52,0-7.07.06c-21.24.34-46.34,1.33-71.53,6.06A155.3,155.3,0,0,0,39,138.2c-.69.23-1.41.41-2.11.58s-1.2.29-1.79.47a2.38,2.38,0,0,1-.7.13.47.47,0,0,1-.33-.09c-.08-.08-.21-.32-.2-1v-.51c0-7,.07-14.25,0-21.37,0-1.33.61-1.47,1.67-1.71.19,0,.39-.09.58-.15A257.31,257.31,0,0,1,74.87,107a479.84,479.84,0,0,1,59.29-3.42c3-.06,5.81-.09,8.6-.09a304.65,304.65,0,0,1,47.18,3.41C210,110,233.32,115,254.36,127.45a13.67,13.67,0,0,0,7,2.34,13.25,13.25,0,0,0,6.93-2.33c16-9.67,33.66-14.39,48.84-17.73,19.33-4.25,39.8-6.31,62.59-6.31,6.08,0,12.45.15,18.94.45,28.89,1.32,53.86,6.15,76.36,14.75a114.33,114.33,0,0,1,21.16,10.26,7.29,7.29,0,0,0,4,1.4,7.42,7.42,0,0,0,4-1.36c11.16-6.85,24.27-12.23,40.1-16.44,23-6.11,47.14-9.08,73.89-9.08,9.38,0,19.27.38,29.4,1.13,23.06,1.7,43.73,5.94,63.2,13A124.35,124.35,0,0,1,736.65,130a3.72,3.72,0,0,0,4.65.05c13.89-8.79,29.79-15,50-19.62a281.61,281.61,0,0,1,53.39-6.75c4.37-.14,8.79-.21,13.14-.21a399.64,399.64,0,0,1,60.54,4.59,314.13,314.13,0,0,1,44,10c2.16.67,3.18,1.44,3.08,4-.22,6-.14,12.19-.06,18.14l0,1.57c0,.57,0,1.54-.23,1.8a.5.5,0,0,1-.35.09,4.74,4.74,0,0,1-1.44-.35c-16.22-6-34.06-10.21-56.15-13.14a359,359,0,0,0-47.55-3.41q-2.25,0-4.5,0c-28.94.46-52.64,4-74.57,11-14.36,4.63-24.62,9.84-33.27,16.91A13.22,13.22,0,0,1,739,158.16Z" transform="translate(-33.31 -102.9)"/><path class="a" d="M618.12,103.9c9.37,0,19.25.38,29.36,1.13,23,1.7,43.65,5.92,63.07,12.92a124.13,124.13,0,0,1,25.83,12.47,4.2,4.2,0,0,0,5.18.05c13.85-8.75,29.7-15,49.88-19.56a281.47,281.47,0,0,1,53.3-6.73c4.36-.14,8.78-.21,13.11-.21a398.62,398.62,0,0,1,60.47,4.58,313.13,313.13,0,0,1,43.9,10c2.22.68,2.81,1.44,2.73,3.53-.22,6.06-.14,12.21-.06,18.16l0,1.57a6,6,0,0,1-.08,1.39h0a3.93,3.93,0,0,1-1.27-.32c-16.25-6-34.13-10.23-56.25-13.16a360.2,360.2,0,0,0-47.63-3.42c-1.5,0-3,0-4.5,0-29,.46-52.73,4-74.71,11.06-14.43,4.65-24.74,9.89-33.43,17a12.78,12.78,0,0,1-8,3.29c-2.71,0-5.49-1.16-8.24-3.44-8.53-7.05-19.09-12.4-33.23-16.85-23.67-7.44-48.85-11.06-77-11.06-5.25,0-10.7.13-16.19.39-23.84,1.12-44.59,4.65-63.42,10.8-14.36,4.68-24.58,9.93-33.12,17a12.23,12.23,0,0,1-7.73,3.09,10.91,10.91,0,0,1-7-2.72c-15.7-12.92-34.28-18.42-52-22.44a264.53,264.53,0,0,0-59-6.16l-4.49,0c-30.26.4-56.06,4.46-78.87,12.43-12.71,4.44-22.17,9.55-29.76,16.09a11.65,11.65,0,0,1-7.62,2.82,10.51,10.51,0,0,1-6.68-2.32c-16.27-13.31-35.62-18.94-54.11-23-18.32-4.06-38.4-6-61.4-6-2.31,0-4.69,0-7.08.06-21.26.34-46.39,1.33-71.61,6.07a157.87,157.87,0,0,0-21.59,5.36,21,21,0,0,1-2.08.57c-.59.15-1.2.3-1.8.49a2.05,2.05,0,0,1-.54.1,2.08,2.08,0,0,1-.05-.59v-.46c0-7,.08-14.28,0-21.43,0-.89.19-1,1.28-1.21l.61-.15a255.24,255.24,0,0,1,38.69-7.59A470.79,470.79,0,0,1,134.17,104h.09c2.86-.06,5.72-.09,8.49-.09a302.4,302.4,0,0,1,47.11,3.41c20,3.17,43.27,8.08,64.25,20.53,2.81,1.66,5.05,2.41,7.27,2.41a13.72,13.72,0,0,0,7.19-2.4c15.92-9.63,33.55-14.34,48.69-17.67,19.29-4.24,39.73-6.3,62.49-6.3,6.06,0,12.42.15,18.9.45,28.84,1.32,53.77,6.13,76.21,14.71a114.29,114.29,0,0,1,21.07,10.22,7.73,7.73,0,0,0,4.24,1.48,8,8,0,0,0,4.22-1.43c11.12-6.83,24.19-12.19,40-16.39,22.92-6.09,47-9.06,73.76-9.06M379.93,217.18c5.17,0,10.59.11,16.08.33,28,1.13,52.42,5.45,74.68,13.22a119.56,119.56,0,0,1,26.45,12.63,5.57,5.57,0,0,0,3,1.07,5.18,5.18,0,0,0,2.79-.92c13.74-8.57,29.63-14.72,50-19.36,20.56-4.68,42.16-7,66-7,4.17,0,8.46.07,12.77.21,28.55.93,53.5,5.16,76.31,12.92a128.74,128.74,0,0,1,28.16,13.28,5.38,5.38,0,0,0,2.88,1,4.85,4.85,0,0,0,2.66-.89c13.62-8.64,29.78-14.9,50.84-19.7A270.1,270.1,0,0,1,831,218.22c8.55-.68,17.46-1,26.48-1,6.95,0,14.16.21,21.45.61a382,382,0,0,1,59.19,7.7c8.26,1.75,16.83,4,25.5,6.74,1.09.34,1.29.59,1.28,1.61-.08,8.08-.06,15.14,0,21.59a3,3,0,0,1-.1,1,5.55,5.55,0,0,1-1.17-.31c-31.49-11-65.94-16.42-105.31-16.42-5.16,0-10.51.1-15.9.28a235.09,235.09,0,0,0-51.38,7.52c-12.66,3.32-27.36,8-40.45,17.4-1.13.81-2.31,1.73-3.5,2.71a13,13,0,0,1-8.26,3.33,12,12,0,0,1-7.78-3.13c-7.64-6.45-16.75-11.37-28.67-15.48-24.75-8.53-51.3-12.68-81.18-12.68-8.71,0-17.92.36-27.36,1.08a232.29,232.29,0,0,0-42.28,6.93c-14.2,3.76-30.55,9.14-44.15,20.47a11.49,11.49,0,0,1-7.32,2.7,10.87,10.87,0,0,1-7-2.55c-9.36-7.89-20.6-13.59-36.47-18.49-16.6-5.13-34.84-8.25-55.75-9.53-7.07-.43-14.09-.65-20.86-.65a267.85,267.85,0,0,0-65.6,7.69c-13,3.24-29.7,8.37-44,19.44l-.76.59a15.48,15.48,0,0,1-5.46,3.23,11.68,11.68,0,0,1-3.06.42,10.92,10.92,0,0,1-7.17-2.74c-9.33-7.85-20.61-13.52-36.59-18.38-23-7-48.17-10.27-79.15-10.27-2.65,0-5.41,0-8.19.07-25.54.43-46.24,2.07-65.13,5.14a185.11,185.11,0,0,0-29.17,7.12,4.49,4.49,0,0,1-1.28.3h-.07a4.09,4.09,0,0,1-.11-1.35c.08-6.38.14-13.18,0-20,0-1.68.38-2.22,2-2.65a312.38,312.38,0,0,1,46.14-8.33c17.15-1.83,34.27-2.32,47.27-2.55,3.58-.08,7.11-.12,10.51-.12,23.37,0,43.84,1.88,62.58,5.74,23.86,4.91,41.2,11.4,56.22,21a4.18,4.18,0,0,0,2.26.72,4.89,4.89,0,0,0,2.54-.85c12.86-8.07,32.87-18.07,73.77-23.85a299.58,299.58,0,0,1,42.31-2.8M618.6,330.36c10.59,0,21.54.52,32.54,1.54,26.32,2.46,48.58,7.69,68,16a106.26,106.26,0,0,1,17.46,9.22,4.21,4.21,0,0,0,2.4.84,4.37,4.37,0,0,0,2.34-.78C757.58,347,776.93,340,802.26,335.34a303.41,303.41,0,0,1,55.69-4.9c12.62,0,26,.7,39.84,2.07,24.09,2.4,45.5,6.62,65.47,12.9,1.35.42,1.65.81,1.64,2-.07,6.62-.07,13.58,0,21.27a5.07,5.07,0,0,1-.07,1,2.94,2.94,0,0,1-.84-.21c-20.45-7.51-43.26-12.27-71.77-15-11.74-1.12-23.22-1.69-34.11-1.69-8.92,0-17.75.38-26.25,1.13-23.88,2.1-43.26,6.34-61,13.34A89.08,89.08,0,0,0,746.7,381.2a12.28,12.28,0,0,1-7.73,3,11.71,11.71,0,0,1-7.54-3c-8.94-7.44-20-13-34.88-17.66-19.18-6-40-9.36-63.77-10.4-4.74-.21-9.48-.32-14.08-.32-9.05,0-18,.41-26.61,1.22-20.23,1.9-46.6,5.7-71.16,18.28a63.86,63.86,0,0,0-12.64,8.35,11.39,11.39,0,0,1-15.75.27c-10.69-8.69-23.57-14.76-41.77-19.67-21.12-5.71-44-8.49-69.85-8.49-3.33,0-6.78.05-10.25.14a259,259,0,0,0-48.77,5.79c-15,3.3-32.36,8.08-47.65,18.5-1.79,1.22-3.44,2.56-5.25,4a12.6,12.6,0,0,1-7.91,2.94,9.78,9.78,0,0,1-6.4-2.29c-7.32-6.15-18.94-14.08-44-20.76-21.15-5.64-44.28-8.38-70.72-8.38-3.55,0-7.24,0-11,.15-15.26.4-29,.85-43.1,2.31-20,2.08-36.07,5.27-50.58,10a3.93,3.93,0,0,1-.94.22,3.56,3.56,0,0,1-.06-.88c.1-8.28.1-15,0-21.28,0-1.22.28-1.4,1.79-1.82a277.83,277.83,0,0,1,41.49-7.89c14.31-1.69,29.82-2.68,48.81-3.14,4.39-.1,8.47-.14,12.48-.14a338,338,0,0,1,48.73,3.15c23.81,3.47,42.88,8.92,60,17.15a119.81,119.81,0,0,1,11.26,6.43,4.85,4.85,0,0,0,2.49.88,3.65,3.65,0,0,0,2-.63c19-12,41.13-19.32,71.86-23.78a314.77,314.77,0,0,1,44.88-3.17c9,0,18.22.37,27.49,1.09,22.16,1.75,41.68,5.46,59.67,11.37,11.86,3.89,21.67,8.4,30,13.8a4.63,4.63,0,0,0,5.77.08c14.39-9.08,31.24-15.45,53-20a304,304,0,0,1,62.54-6.36M274.28,422.69a82.88,82.88,0,0,1,37.43,8.45c15.63,7.81,27.28,20.48,34.62,37.65,5.58,13,8.33,26.08,8.17,38.71-.39,30.25-12,54-34.52,70.59-10,7.33-22.17,11.66-36.33,12.86-2.27.2-4.59.29-6.45.36l-2.06.08c-24.62-.1-43.71-7.92-58.37-23.91C206,555.74,199.21,541.11,196.55,524c-3.86-24.83-.23-46.08,11.09-65,13.82-23.05,35-35.26,62.84-36.28,1.27-.05,2.55-.07,3.8-.07m.12,136.48c15.57,0,27.4-7.29,35.15-21.68a57.15,57.15,0,0,0,6.4-26c.09-11.41-.83-19.09-3.15-26.49-3.16-10.05-7.59-17-13.95-22a41.34,41.34,0,0,0-25.32-8.75c-14.33,0-26.44,7.5-33.23,20.58-10.21,19.67-10.5,40.5-.87,61.93,6.43,14.29,18.12,22,33.83,22.39h1.14M753,422.83v1c22.69,0,43.3,7.9,61.25,23.46l1.81,1.59c1.4,1.24,2.85,2.53,4.37,3.71a3.49,3.49,0,0,1,.74.7,3,3,0,0,1-.75.66c-9.13,6.46-18,12.82-26.33,18.93a1.64,1.64,0,0,1-.86.39c-.35,0-.77-.4-1.24-.88-3.89-4-9.19-9-15.75-12.17-9.39-4.53-17.26-6.64-24.77-6.64a38.92,38.92,0,0,0-9.66,1.21,24.42,24.42,0,0,0-9.57,4.67c-5.08,4.18-7.1,9.21-6,15,1,5.33,4.74,8.92,11.38,11a81.91,81.91,0,0,0,14.73,2.68c2.58.31,5.25.63,7.84,1.08l5.47.94c9.77,1.64,19.87,3.35,29.44,6.44,21,6.8,32.13,26,27.64,47.84-4.64,22.58-19,36.94-42.54,42.69a125.34,125.34,0,0,1-29.55,3.68,108.21,108.21,0,0,1-39.19-7.3c-11.17-4.33-21.34-11.85-31.09-23-.75-.86-.82-1.24-.8-1.39s.3-.57,1.37-1.23c7.52-4.62,15.39-9.62,25.55-16.21a3.26,3.26,0,0,1,1.54-.7c.24,0,.65.1,1.54,1,12.44,12.34,27,18.6,43.22,18.6a71.55,71.55,0,0,0,14.58-1.57c7.68-1.6,13.19-5.41,16.35-11.32a13.58,13.58,0,0,0,1.14-10.76,14.31,14.31,0,0,0-7.8-8.3c-6.56-3-13.62-4-20.45-4.86l-1.31-.18-3.33-.44c-11.53-1.5-23.46-3.06-34.63-7.05-12-4.29-20.26-10.84-25.22-20a38.92,38.92,0,0,1-4.45-18.16c-.3-22,9.31-37.72,28.58-46.82,10.28-4.86,21.76-7.22,35.11-7.22H753v-1m-102.76,3.84v1c1.71,0,2.06.74,2.06,1.92,0,5.13,0,10.36,0,15.41q0,5.73,0,11.46a1.26,1.26,0,0,1-.09.62h0a1.1,1.1,0,0,1-.46.06l-.46,0h-.56l-18.78,0-31.22.05h-9c-3.91,0-9,0-14.14-.09h-.22a4.17,4.17,0,0,0-3.11.95,4.09,4.09,0,0,0-.9,3.16c.15,6.62.15,13.64,0,22.76a3.44,3.44,0,0,0,4,4.2h.07c10.22-.05,20.61-.06,30.66-.06,11.86,0,24.14,0,36.21-.1h.1c1.27,0,2,.16,2.37.52s.5,1.13.47,2.49c-.22,8.05-.15,16,0,24.09,0,.93-.13,1.27-.25,1.4s-.46.27-1.4.27c-14.81,0-29.87,0-44.44,0H578.31c-4.43,0-4.75.71-4.76,5.17,0,2.85,0,5.71,0,8.56,0,7.23,0,14.7-.1,22a4.67,4.67,0,0,0,1,3.54,4.91,4.91,0,0,0,3.64,1.05h.07c12.13,0,24.46-.05,36.38-.06,13.78,0,28,0,42.05-.08h.07a3.38,3.38,0,0,1,2.28.5,3,3,0,0,1,.45,2.1c-.14,8.33-.11,16.54-.06,25.65a2.24,2.24,0,0,1-.33,1.52,2.41,2.41,0,0,1-1.58.35c-23.82,0-48,0-71.46,0l-46,0c-2.19,0-3.92,0-4.37-.47s-.44-2-.44-4.34V488.45q0-29.38,0-58.77c0-.69,0-1.48.24-1.72.09-.09.36-.25,1.14-.25,20,.06,39.64.07,57.94.07h14.23c14.78,0,28.11,0,41.57-.11l0-1m-271.17,1h.18c5.26.07,10.84.11,16.56.11,5.18,0,10.49,0,16.26-.09h.12a4.13,4.13,0,0,1,4.21,2.37c6.57,11.35,13.3,22.87,19.8,34,7,12,14.29,24.46,21.38,36.73,3.25,5.62,6.36,11.45,9.38,17.1,1.43,2.68,2.86,5.36,4.32,8,.31.57.63,1.14,1.07,1.92l.86,1.51,1.48,2.62.38-3a66.05,66.05,0,0,0,.18-12.35c-.09-1.7-.17-3.31-.19-4.94-.15-15.65-.44-31.56-.71-46.95q-.12-6.51-.23-13l0-2.37c-.11-6.5-.23-13.21-.48-19.81,0-.82.05-1.34.26-1.55a2.18,2.18,0,0,1,1.43-.3h.06c7.27,0,13.2.08,18.66.08s10.35,0,15.09-.08h.06c.78,0,1,.17,1.05.22s.15.77.14,1.31v3.29q0,20.46,0,40.93l0,77.5v32.47c0,1.68,0,3-.28,3.28s-1.64.29-3.35.29H489.35c-5.81,0-10.51,0-14.78.06h-.07A3.51,3.51,0,0,1,471,585c-11.9-20.24-22.64-38.48-33.6-56.79-8.77-14.64-15.14-26.12-20.67-37.24l-.12-.24a5.74,5.74,0,0,0-2.67-2.93l-1.47-.8v1.68c0,.62,0,1.21,0,1.77,0,1.16,0,2.23,0,3.31q.46,37.18.95,74.38l.2,15.24c0,.18,0,.37,0,.55a10.35,10.35,0,0,0,.06,1.45c.12.93,0,1.25-.12,1.36s-.43.32-1.48.32h-.11c-5.66-.07-11.53-.1-17.45-.1-5.07,0-10.35,0-15.68.07h-.13c-.85,0-1.36-.09-1.56-.29a2.64,2.64,0,0,1-.31-1.61c.08-53.24.09-105.38,0-155,0-1.13.13-1.79.42-2.08a2.79,2.79,0,0,1,1.86-.4m477.25.25H951c8.93,0,13.85,4.94,13.86,13.91,0,1.44,0,2.89,0,4.33,0,3.2-.05,6.51.08,9.77a2.61,2.61,0,0,1-.29,1.71A2.55,2.55,0,0,1,963,458h-.13c-5.63-.07-11.36-.07-16.9-.07-6,0-12.27,0-18.4-.08h-.18a4.55,4.55,0,0,0-3.28,1,4.83,4.83,0,0,0-1,3.56c0,20.88.06,42.1.08,62.63,0,19.61,0,39.89.07,59.84a3.17,3.17,0,0,1-.42,2c-.27.28-.88.4-1.91.4h-.18c-5.4-.07-10.9-.11-16.82-.11-5.51,0-11.26,0-17.57.1h-.1c-.9,0-1.23-.15-1.36-.27-.27-.28-.27-1.27-.27-1.59.06-16,0-32.37,0-48.15V523.57l0-1h0q0-6.84,0-13.68c0-15.26,0-31,.07-46.55a4.76,4.76,0,0,0-1-3.48,4.59,4.59,0,0,0-3.35-1h-.18c-4.21.05-8.83.07-14.54.07H845a7.44,7.44,0,0,1-2.16-.17,8.81,8.81,0,0,1-.17-2.72v-.09c0-2.09,0-4.21,0-6.27,0-2.35,0-4.77,0-7.16.09-8.38,5.34-13.59,13.7-13.59M71.19,428a2.31,2.31,0,0,1,1.51.33c.25.25.36.85.35,1.89,0,7.56,0,15.25,0,22.68,0,9.36,0,19-.08,28.55a5,5,0,0,0,1,3.6,4.89,4.89,0,0,0,3.56,1.05h.1c8.65-.06,17.27-.09,25.61-.09,8.75,0,17.47,0,25.93.1h.11a4.59,4.59,0,0,0,3.4-1,4.79,4.79,0,0,0,1-3.52c-.13-17.9-.1-35.62-.06-50.6,0-.58,0-1.07,0-1.5a11.89,11.89,0,0,1,0-1.38,6.9,6.9,0,0,1,1-.05h2.08c2.82,0,5.64,0,8.45,0l10.29,0h2.5c8.56,0,14.11,5.54,14.14,14,.06,16.78,0,33.84,0,50.34v35.3c0,18.73,0,38.09.05,57.14,0,1-.11,1.57-.37,1.83a2.25,2.25,0,0,1-1.5.35h-.07c-6.1,0-12.06-.08-17.73-.08-5.9,0-11.72,0-17.28.09h-.06a2.08,2.08,0,0,1-1.32-.3c-.29-.3-.29-1.1-.29-2v-.1q0-26.22,0-52.45v-8.79c0-2.26,0-3.4-.81-4.19s-2-.79-4.25-.79h-25.2c-7,0-16.3,0-25.72-.07H77.5c-1.54,0-2.73.17-3.56,1a4.65,4.65,0,0,0-1,3.52c.08,11.56.08,23.32.08,34.69,0,8.8,0,17.9,0,26.85,0,1.22-.12,1.89-.42,2.18a2.73,2.73,0,0,1-1.82.41h-.15c-5-.07-10.26-.11-15.62-.11-5.89,0-11.93,0-18.45.13h-.15a2.68,2.68,0,0,1-1.74-.38,3,3,0,0,1-.38-1.94c.06-18.21.06-36.72.05-54.63V512.86q0-26.58,0-53.15V442.56c0-9.25,5.25-14.55,14.4-14.55h6.45l6.37,0c3.65,0,6.63,0,9.38-.09h.2M35.94,620.46a7.78,7.78,0,0,1,.78,0,27.63,27.63,0,0,0,3.07.15c.82,0,1.65,0,2.45,0s1.6,0,2.39,0h564l353.18,0c.67,0,1.24,0,1.71,0l.84,0a3.19,3.19,0,0,1,.45,0,13.94,13.94,0,0,1,.06,1.93v1.31c0,2.35,0,4.75,0,7.07,0,3.83,0,7.79.06,11.69,0,1-.15,1.35-.29,1.5a1.9,1.9,0,0,1-1.24.27h-.3c-1.17-.05-2.41-.07-4-.07H40.57c-3.12,0-5,0-5.61-.6s-.59-2.45-.59-5.51c0-1.38,0-2.76,0-4.13,0-3.58.05-7.27-.08-10.91,0-.8,0-1.92.38-2.34a1.74,1.74,0,0,1,1.24-.33M445.1,682.78a67.12,67.12,0,0,1,30.78,7.47c11.36,5.8,20.4,14.79,27.63,27.49.35.61.31.79.3.81s-.06.18-.64.46c-8.71,4.25-17.17,8.45-25.13,12.48a1.72,1.72,0,0,1-.72.24c-.17,0-.42-.49-.67-1a35.8,35.8,0,0,0-11.4-14,33,33,0,0,0-19.48-6.43,32.46,32.46,0,0,0-29.16,18.59,65.26,65.26,0,0,0-7.06,29.8,63.28,63.28,0,0,0,8.12,29.56A31.77,31.77,0,0,0,446,804.9a33,33,0,0,0,26.92-13.73,64.6,64.6,0,0,0,4.12-6.38c.48-.85.8-.85.93-.85a2.43,2.43,0,0,1,1,.34l2,1.06c7.12,3.69,14.48,7.5,21.77,11.15.88.44,1.12.76,1.18,1s0,.6-.54,1.48c-8.56,13.87-19.44,23.33-33.27,28.91a70.48,70.48,0,0,1-26.44,5.31A71.27,71.27,0,0,1,420,828.93c-18.66-6.6-31.82-20.22-39.1-40.48-3.24-9-4.8-18.93-4.78-30.35.34-24.66,8.25-43.81,24.18-58.54a61.25,61.25,0,0,1,30.81-15.44,76.31,76.31,0,0,1,14-1.34m460.61,0v1c18,0,36.38,8,53.12,23,1.46,1.32,3,2.68,2.95,3.16s-1.57,1.58-3.2,2.75c-2.18,1.56-4.36,3.1-6.55,4.65-4.28,3-8.7,6.14-13,9.33a2.78,2.78,0,0,1-1.43.68c-.25,0-.64-.11-1.44-.9-8-8-16.55-13-26.06-15.05a48.88,48.88,0,0,0-10.51-1.29,28.36,28.36,0,0,0-11.84,2.41c-4.45,2-7.37,4.62-8.91,8.06a12.83,12.83,0,0,0-.51,10.27c1.32,3.19,4.07,5.67,8,7.16,4.47,1.72,9.17,2.28,13.71,2.83,2.1.25,4.27.51,6.37.88,2.51.45,5.07.86,7.54,1.26,9.89,1.59,20.11,3.24,29.5,7.3,13.44,5.83,20.48,16.27,20.91,31,.64,21.56-12.35,39.63-33.08,46a105.24,105.24,0,0,1-31.18,4.86,101.28,101.28,0,0,1-34.61-6.2c-10.5-3.81-19.94-10.77-28.85-21.28a4.9,4.9,0,0,1-.44-.59,2.2,2.2,0,0,1,.41-.31c8.51-5.39,17.11-10.92,24.41-15.61a1.31,1.31,0,0,1,.65-.26c.34,0,.76.42,1.23.93,8.39,9.07,19.28,14.38,33.27,16.24a56.6,56.6,0,0,0,7.66.54c7.55,0,13.93-1.76,19.49-5.39s7.91-8.15,7.33-13.67c-.65-6.23-5.39-8.93-8.89-10.42a43.12,43.12,0,0,0-10.15-2.73c-3.89-.63-7.85-1.15-11.69-1.65-9.6-1.25-19.54-2.55-28.89-5.76-13.73-4.72-21.75-11.82-25.24-22.34a45.54,45.54,0,0,1-.23-27.6,40.41,40.41,0,0,1,18.53-23.33c10.85-6.32,22.84-9,40.09-9h1.55v-1m-609.21.86c21.54,0,41.59,8.57,59.6,25.49.61.58.66.79.66.79s-.06.21-.7.66c-6.85,4.82-14.93,10.54-22.83,16.33a2.08,2.08,0,0,1-1.12.5c-.43,0-.88-.38-1.53-1-6.53-6.65-13.25-11-20.54-13.41A50.72,50.72,0,0,0,294.35,710h0a28.5,28.5,0,0,0-13.85,3.44,15.25,15.25,0,0,0-7.95,9.41c-1.75,6.33,1.62,12.55,8.19,15.11,4.4,1.72,9,2.26,13.48,2.79,2.17.26,4.42.52,6.59.92,2.69.49,5.44.95,8.09,1.39,9.69,1.61,19.71,3.27,29,7.08,13.52,5.55,21.81,18.9,21.12,34-1,21.87-15.46,39-37.74,44.64A128.52,128.52,0,0,1,297,832.12h-.17c-19.07,0-33.79-3.38-46.33-10.65-7.63-4.43-13.89-10.71-19.51-16.83a1.72,1.72,0,0,1-.33-.44s.11-.2.56-.49c7.21-4.55,14.5-9.22,21.56-13.73l2.88-1.84a1.15,1.15,0,0,1,.52-.2c.21,0,.5.2.91.63,10.73,11.25,24.44,16.95,40.77,16.95,1.11,0,2.25,0,3.38-.08,8.85-.41,15.52-3.15,20.39-8.38a12.31,12.31,0,0,0-3.95-20.18c-5.56-2.57-11.48-3.39-17.2-4.19l-2.73-.39-4.34-.63c-10.23-1.46-20.81-3-30.78-6.66-17.07-6.32-26.38-21.61-24.29-39.9,2.21-19.35,14.37-32.92,34.25-38.2a93.11,93.11,0,0,1,23.9-3.26m426.07,3.13c16.32,0,33,.05,50.94.05,17,0,34.72,0,54.37,0a2.44,2.44,0,0,1,1.63.35,2.15,2.15,0,0,1,.32,1.46c-.09,7.93-.09,15.72,0,23.15a2.26,2.26,0,0,1-.3,1.49,2.29,2.29,0,0,1-1.46.3H828c-3.57,0-7.16,0-9.89,0h-8c-3.89,0-8.48,0-13-.09h-.24a4.67,4.67,0,0,0-3.37,1,5,5,0,0,0-1,3.61c.05,17.66.06,35.62.06,53,0,18.06,0,36.74.07,55.11a3.42,3.42,0,0,1-.44,2.2,2.86,2.86,0,0,1-1.91.41H790c-4.66-.08-9.46-.13-14.27-.13s-9.61,0-14.51.13h-.25c-1.16,0-1.81-.14-2.13-.47a3.38,3.38,0,0,1-.48-2.29c.12-13.34.1-26.9.09-40q0-7,0-14t0-14c0-13.14,0-26.72.1-40.07,0-1.71-.28-2.79-1-3.49a4.55,4.55,0,0,0-3.39-1h-.3c-4,0-8,.06-11.29.06H734.4c-3.4,0-7.44,0-11.52.06h-.15c-.81,0-1.31-.09-1.49-.28s-.29-.74-.27-1.62c.18-8,.1-16,0-23.15,0-.3,0-1.2.24-1.45.1-.1.4-.27,1.31-.27h0m-541.8.36H181c4.41.09,9,.13,14,.13,4.51,0,9.29,0,15-.1h.13a2.65,2.65,0,0,1,1.78.4c.29.28.42.92.42,2-.07,44.18-.07,90.43,0,137.45,0,1-.15,1.34-.29,1.47s-.65.27-1.43.27h-.1c-5.63-.05-10.68-.07-15.44-.07-5.16,0-9.93,0-14.57.09h-.13a2.59,2.59,0,0,1-1.73-.39c-.28-.28-.4-.92-.4-2,.07-17.62.07-35.53.06-52.86V757.93l0-1q0-7.48,0-15c0-17.08,0-34.75-.06-52.13a3.28,3.28,0,0,1,.47-2.23,3,3,0,0,1,2-.45m342.26,0h.32c4.81.09,9.89.14,15.11.14,4.48,0,9.06,0,14-.1h.19a2.84,2.84,0,0,1,1.91.41,3.17,3.17,0,0,1,.41,2c-.11,11.52-.1,23.23-.08,34.56q0,6,0,12v10.2q0,15.83,0,31.67a47.41,47.41,0,0,0,1.08,11.4A16,16,0,0,0,565,800.64a37.65,37.65,0,0,0,16.2,3.75,39.11,39.11,0,0,0,12.47-2.11c8-2.71,12.32-9,13.06-19.32.35-4.9.36-9.88.36-14.71v-1.6c0-17.16,0-34.62,0-51.49q0-12.23,0-24.44c0-1.58,0-2.94.27-3.22s1.66-.27,3.14-.28H627c4.83,0,8.53,0,12,0h.11c1,0,1.55.12,1.8.38a2.49,2.49,0,0,1,.38,1.71c0,10.87-.06,21.92-.06,32.61,0,17.78,0,36.17-.26,54.24-.19,15-4.09,26.78-11.93,35.89-7.4,8.6-17.37,14.4-30.48,17.71a76.41,76.41,0,0,1-18.69,2.39,73.19,73.19,0,0,1-29.21-6.18c-17.25-7.46-27.15-20.92-29.41-40a119.9,119.9,0,0,1-.66-14.54q0-13.06,0-26.15c0-18.16,0-36.93-.05-55.4a3.5,3.5,0,0,1,.47-2.28,3,3,0,0,1,2-.43m-486.14,0H37c2.47,0,5.18.05,8.53.05H56l6.36,0c1.83,0,3.66,0,5.49,0,3.18,0,6.36,0,9.55,0s6.35,0,9.53,0c7.55,0,16.5.1,25.61.86,12.26,1,20.76,4.13,27.54,10.13,7,6.21,11,16.19,10.49,26.7-.43,9.56-4.52,17.86-11.23,22.79a36,36,0,0,1-12.19,5.86c-.95.25-1.89.53-2.81.81l-1.27.38-2.91.85L123,756.6c2.38.87,4.75,1.5,7,2.11,1.53.4,3,.79,4.45,1.24a29.81,29.81,0,0,1,18.11,14.89,32.69,32.69,0,0,1,1.87,25c-4.85,14.93-15.93,23.9-33.88,27.41-7.15,1.4-14.55,1.42-21.7,1.44h-.2l-18.88,0H60.67c-6.48,0-15,0-23.53,0h-.07c-1,0-1.66-.12-1.92-.38a2.81,2.81,0,0,1-.38-1.86c.06-36.12.06-72.84.06-108.36v-26.9c0-.21,0-.43,0-.64a6.86,6.86,0,0,0,0-1.36,2.4,2.4,0,0,1,.2-1.63,2.6,2.6,0,0,1,1.83-.43m33.93,56.88H71c1.86,0,3.84,0,6.41,0h7c2.77,0,6.06,0,9.42-.08,4.9-.11,10-.21,14.78-2.22,6-2.49,9.1-7.82,8.74-15s-3.74-11.63-10.31-13.47a35.43,35.43,0,0,0-9.53-1.1c-1.24,0-2.46,0-3.65.07s-2.23,0-3.3,0-2,0-2.79-.09h-.07l-5.37,0-4.56,0c-2.57,0-4.55,0-6.44-.1h-.43a3.91,3.91,0,0,0-2.88.91,4.33,4.33,0,0,0-.91,3.16c.13,7.23.13,15.08,0,24a4,4,0,0,0,.89,2.94,3.93,3.93,0,0,0,2.9.92m17.55,24H70.82a3.87,3.87,0,0,0-2.91.83,3.24,3.24,0,0,0-.81,2.44c.05,9,0,18.19,0,27.07v2.87a3.35,3.35,0,0,0,.77,2.52,3,3,0,0,0,2.23.76h.1c1.42,0,2.93,0,4.63,0,2.2,0,4.41,0,6.62,0s4.43,0,6.65,0c4.08,0,9.46,0,14.9-.45,4.4-.32,10-1.23,14-5.42,4.93-5.1,6-11.82,3.26-20-2-6-6.95-9.42-14.62-10.21A113.45,113.45,0,0,0,94,768H88.37m613.18-80.87a2.65,2.65,0,0,1,1.75.37c.27.26.39.89.39,1.91-.08,17.66-.07,35.61-.06,53v14.73h0v1q0,8.1,0,16.19c0,17,0,34.59.09,51.88,0,1.13-.13,1.82-.43,2.11s-.88.41-2,.41h-.23c-4.5-.07-9.25-.1-14.13-.1s-9.83,0-15.24.09h-.13a2.6,2.6,0,0,1-1.67-.34,2.79,2.79,0,0,1-.37-1.79c.06-33.7.06-68,.06-101.1V691.09c0-1.78,0-3.19.32-3.54s1.83-.33,3.3-.33h.35l7.87,0,8.68,0c4.34,0,7.92,0,11.25-.08h.19M35.33,871.44h.25c1.17.06,2.41.08,4,.08H960.5c2.1,0,3.61,0,4,.38s.38,1.9.39,4,0,4,0,5.93c0,3.89,0,7.92,0,11.89,0,.85-.13,1.09-.2,1.16a1.26,1.26,0,0,1-.77.16h-.26c-.9,0-1.87-.07-3.06-.07h-2.1l-2.08,0H39.38c-2.46,0-4.09,0-4.55-.46s-.46-2.1-.46-4.57c0-1.72,0-3.44,0-5.16,0-3.94,0-8,0-12,0-.86.13-1.1.19-1.16s.22-.16.8-.16M618.12,102.9c-24.9,0-49.62,2.61-74,9.1-14.13,3.75-27.75,8.83-40.23,16.5a7.15,7.15,0,0,1-3.7,1.28,6.9,6.9,0,0,1-3.7-1.32,115.17,115.17,0,0,0-21.25-10.31c-24.64-9.42-50.34-13.58-76.52-14.78q-9.49-.44-18.95-.45a290.65,290.65,0,0,0-62.7,6.33c-17.15,3.77-33.91,8.65-49,17.78a12.81,12.81,0,0,1-6.67,2.26,13.25,13.25,0,0,1-6.76-2.27c-19.88-11.8-42-17.08-64.6-20.66a303.86,303.86,0,0,0-47.27-3.42c-2.87,0-5.72,0-8.52.09h-.06a477.54,477.54,0,0,0-59.36,3.42A258.9,258.9,0,0,0,36,114.07c-1.21.34-2.65.3-2.62,2.35.1,7.28,0,14.58,0,21.87,0,1.09.29,1.59,1,1.59a3,3,0,0,0,.85-.15c1.29-.39,2.63-.63,3.91-1.06a160.42,160.42,0,0,1,21.45-5.33c23.61-4.43,47.5-5.66,71.45-6,2.35,0,4.71-.06,7.06-.06,20.56,0,41,1.54,61.19,6,19.3,4.29,38,10,53.68,22.84a11.5,11.5,0,0,0,7.33,2.55,12.71,12.71,0,0,0,8.26-3.06c8.67-7.47,18.82-12.2,29.44-15.91,25.41-8.87,51.8-12,78.55-12.37l4.48,0a265.13,265.13,0,0,1,58.76,6.14c18.55,4.2,36.53,9.82,51.61,22.23a12,12,0,0,0,7.68,3,13.16,13.16,0,0,0,8.37-3.32c9.71-8,21-13,32.79-16.82,20.51-6.7,41.69-9.74,63.16-10.75,5.39-.26,10.78-.39,16.14-.39,26,0,51.63,3.13,76.69,11,11.85,3.73,23.17,8.64,32.89,16.67,2.93,2.43,5.9,3.67,8.88,3.67a13.69,13.69,0,0,0,8.65-3.52c9.83-8,21.19-13,33.1-16.83,24.19-7.79,49.16-10.61,74.43-11l4.48,0a359.83,359.83,0,0,1,47.5,3.41c19.11,2.53,37.92,6.37,56,13.11a5,5,0,0,0,1.62.38c1,0,1.1-.85,1.08-2.4-.08-6.56-.19-13.13,0-19.68.1-2.78-1-3.78-3.44-4.53a311.43,311.43,0,0,0-44-10,397.2,397.2,0,0,0-60.62-4.6q-6.55,0-13.15.21a280.54,280.54,0,0,0-53.48,6.76c-17.69,4-34.73,9.91-50.19,19.68a3.79,3.79,0,0,1-2,.72,3.86,3.86,0,0,1-2.08-.76,125.47,125.47,0,0,0-26-12.57c-20.48-7.38-41.7-11.38-63.34-13-9.83-.72-19.64-1.13-29.43-1.13ZM379.93,216.18A303.4,303.4,0,0,0,337.48,219c-26.12,3.69-51.46,9.75-74.16,24a3.81,3.81,0,0,1-2,.7,3.2,3.2,0,0,1-1.72-.56C242.27,232,223,226,203,221.94c-20.74-4.27-41.71-5.76-62.78-5.76q-5.26,0-10.53.12c-15.81.28-31.61.88-47.36,2.55a311.84,311.84,0,0,0-46.28,8.36c-2,.53-2.82,1.42-2.77,3.65.17,6.66.12,13.33,0,20,0,1.6.16,2.38,1.18,2.38a5.35,5.35,0,0,0,1.59-.35,184.46,184.46,0,0,1,29-7.09c21.52-3.49,43.21-4.75,65-5.12,2.72,0,5.45-.07,8.17-.07,26.7,0,53.1,2.38,78.86,10.23,13.09,4,25.59,9.23,36.24,18.19a11.94,11.94,0,0,0,7.81,3,12.93,12.93,0,0,0,3.32-.45c2.56-.68,4.51-2.4,6.57-4,12.93-10,28-15.36,43.6-19.26a268.54,268.54,0,0,1,65.36-7.66c6.91,0,13.85.23,20.8.65,18.85,1.16,37.43,3.9,55.52,9.49,13.07,4,25.49,9.34,36.11,18.29a11.8,11.8,0,0,0,7.63,2.79,12.43,12.43,0,0,0,8-2.93c12.8-10.67,28-16.1,43.76-20.27a233,233,0,0,1,42.11-6.9c9.13-.69,18.23-1.08,27.28-1.08,27.41,0,54.44,3.52,80.86,12.63,10.26,3.53,19.95,8.2,28.35,15.29a13,13,0,0,0,8.42,3.37,14,14,0,0,0,8.9-3.56c1.12-.92,2.27-1.82,3.45-2.67,12.09-8.72,25.91-13.52,40.12-17.24A233.5,233.5,0,0,1,842.48,241q7.95-.27,15.87-.28c35.71,0,70.86,4.39,105,16.36a5,5,0,0,0,1.53.37c.74,0,1.09-.51,1.07-2-.12-7.18-.11-14.37,0-21.56,0-1.55-.57-2.14-2-2.58-8.43-2.64-17-4.92-25.59-6.76A387.32,387.32,0,0,0,879,216.8q-10.76-.6-21.5-.61-13.29,0-26.56,1A270,270,0,0,0,792.39,223c-18,4.11-35.41,9.85-51.15,19.83a4,4,0,0,1-2.13.73,4.4,4.4,0,0,1-2.34-.84,131,131,0,0,0-28.38-13.38c-24.83-8.45-50.49-12.11-76.59-13q-6.42-.21-12.81-.21a297.14,297.14,0,0,0-66.26,7c-17.75,4-34.79,9.8-50.32,19.48a4.21,4.21,0,0,1-2.26.77,4.57,4.57,0,0,1-2.47-.91A121.33,121.33,0,0,0,471,229.79c-24.26-8.47-49.4-12.25-75-13.28-5.38-.21-10.75-.33-16.12-.33ZM618.6,329.36a302.76,302.76,0,0,0-62.74,6.39c-18.82,4-37,9.83-53.38,20.18a4.35,4.35,0,0,1-2.29.81,4.41,4.41,0,0,1-2.4-.89,129,129,0,0,0-30.23-13.91c-19.46-6.39-39.5-9.81-59.9-11.41q-13.82-1.08-27.57-1.1a313.26,313.26,0,0,0-45,3.18c-25.48,3.7-50.16,10-72.26,23.93a2.71,2.71,0,0,1-1.42.47,3.78,3.78,0,0,1-2-.73,120.26,120.26,0,0,0-11.35-6.48c-19.11-9.18-39.43-14.2-60.29-17.23a337.59,337.59,0,0,0-48.88-3.17q-6.25,0-12.51.14c-16.34.39-32.65,1.23-48.89,3.15a280.65,280.65,0,0,0-41.65,7.91c-1.56.43-2.55.83-2.52,2.81.12,7.08.09,14.16,0,21.25,0,1.36.25,1.9,1,1.9a4.35,4.35,0,0,0,1.3-.28c16.38-5.37,33.28-8.19,50.37-10,14.3-1.49,28.66-1.94,43-2.31q5.47-.15,10.94-.15c23.78,0,47.33,2.18,70.46,8.35,15.74,4.2,30.85,9.84,43.6,20.56a10.8,10.8,0,0,0,7,2.52,13.61,13.61,0,0,0,8.54-3.17c1.69-1.38,3.38-2.76,5.18-4,14.34-9.78,30.63-14.68,47.3-18.36A257.84,257.84,0,0,1,370.7,354q5.12-.13,10.22-.14c23.48,0,46.75,2.28,69.59,8.45,14.93,4,29.2,9.57,41.4,19.49a12.38,12.38,0,0,0,17-.29,63.9,63.9,0,0,1,12.45-8.22c22.22-11.38,46.26-15.87,70.79-18.17,8.82-.83,17.66-1.22,26.52-1.22q7,0,14,.32c21.61.95,42.83,3.93,63.51,10.35,12.48,3.88,24.35,9,34.54,17.48a12.75,12.75,0,0,0,8.18,3.19,13.19,13.19,0,0,0,8.36-3.26,88.46,88.46,0,0,1,23.93-13.71c19.51-7.71,39.92-11.45,60.69-13.28q13.06-1.14,26.16-1.12c11.34,0,22.67.6,34,1.69,24.41,2.33,48.41,6.45,71.51,14.93a3.84,3.84,0,0,0,1.23.29c.9,0,1-.76,1-2.06q-.09-10.62,0-21.25c0-1.76-.66-2.48-2.34-3a324.61,324.61,0,0,0-65.67-12.94c-13.33-1.33-26.65-2.08-39.94-2.08a305.93,305.93,0,0,0-55.87,4.92c-21.63,4-42.45,10.14-61.24,22A3.41,3.41,0,0,1,739,357a3.34,3.34,0,0,1-1.85-.67A107.35,107.35,0,0,0,719.57,347c-21.84-9.33-44.85-13.89-68.34-16.08q-16.35-1.53-32.63-1.55ZM274.28,421.69c-1.27,0-2.55,0-3.83.07-27.72,1-49.31,12.81-63.67,36.77C194.58,478.88,192,501,195.56,524.16c2.58,16.62,9.06,31.54,20.48,44,15.55,17,35.35,24.14,59.12,24.23,2.13-.1,5.36-.17,8.57-.44,13.41-1.14,26-5.08,36.84-13.05,23.94-17.64,34.56-42.24,34.93-71.39.17-13.5-2.91-26.61-8.25-39.11-7.21-16.86-18.58-29.9-35.09-38.15a83.34,83.34,0,0,0-37.88-8.56Zm.12,136.48h-1.12c-15.34-.35-26.74-8-32.93-21.8-9.11-20.26-9.52-41.09.84-61.06,7.17-13.83,19.71-20,32.34-20a40.47,40.47,0,0,1,24.71,8.54c7.09,5.53,11,13.16,13.61,21.5,2.32,7.39,3.18,15,3.1,26.19A55.74,55.74,0,0,1,308.67,537c-7.4,13.74-18.81,21.16-34.27,21.16ZM753,422.83H751.4c-12.35,0-24.31,2-35.54,7.32-20.11,9.5-29.45,25.72-29.15,47.74a39.68,39.68,0,0,0,4.57,18.61c5.66,10.48,14.9,16.59,25.77,20.47,12.32,4.4,25.28,5.83,38.16,7.54,7.31,1,14.64,1.79,21.47,5,7.16,3.32,9.94,10.7,6.2,17.67-3.33,6.23-9.15,9.46-15.68,10.82a70.21,70.21,0,0,1-14.37,1.55c-16,0-30.2-6.08-42.52-18.31a3.36,3.36,0,0,0-2.24-1.26,4.07,4.07,0,0,0-2.09.86c-8.45,5.48-16.94,10.92-25.52,16.2-2.11,1.29-2.46,2.23-.8,4.12,8.8,10.07,18.9,18.41,31.48,23.28a108.62,108.62,0,0,0,39.55,7.37,125.71,125.71,0,0,0,29.78-3.71c22.95-5.59,38.36-19.49,43.29-43.46,4.59-22.33-6.67-42-28.31-49-11.41-3.69-23.27-5.37-35.05-7.41-7.48-1.3-15.15-1.47-22.45-3.74-5.17-1.61-9.58-4.4-10.69-10.22s1.25-10.4,5.65-14a23.24,23.24,0,0,1,9.17-4.47,37.87,37.87,0,0,1,9.42-1.18c8.48,0,16.52,2.77,24.34,6.54,5.94,2.87,10.87,7.24,15.47,12a2.9,2.9,0,0,0,2,1.19,2.57,2.57,0,0,0,1.46-.58q13.06-9.57,26.3-18.92c1.66-1.17,1.53-1.82.05-3-2.12-1.65-4.1-3.5-6.13-5.26-17.8-15.43-38.3-23.71-61.91-23.71ZM379.1,426.66c-2.58,0-3.29.79-3.28,3.48q.12,77.48,0,155c0,2.38.72,2.9,2.87,2.9h.14q7.83-.07,15.67-.07,8.72,0,17.44.1h.12c2.18,0,2.86-.75,2.59-2.82a16.63,16.63,0,0,1,0-1.87q-.59-44.82-1.15-89.63c0-1.59,0-3.18,0-5.06a5,5,0,0,1,2.36,2.74c6.34,12.75,13.4,25.09,20.71,37.31q17,28.29,33.59,56.78a4.51,4.51,0,0,0,4.39,2.58h.08c4.92,0,9.85-.06,14.77-.06l17.34,0h.07c4.64,0,4.64,0,4.63-4.57q0-55,0-110,0-21.87,0-43.73c0-1.56.31-3-2.19-3h-.07q-7.53.07-15.08.08c-6.22,0-12.44,0-18.65-.08h-.07c-2.12,0-2.78.71-2.69,2.88.28,7.39.39,14.78.52,22.16.34,20,.75,40,.94,60,.05,5.38.84,10.77,0,17.15-.94-1.67-1.45-2.54-1.93-3.42-4.56-8.39-8.93-16.89-13.71-25.15-13.65-23.63-27.51-47.13-41.18-70.75a5.09,5.09,0,0,0-5.07-2.86h-.13c-5.42.05-10.83.09-16.25.09s-11,0-16.55-.11Zm271.17,0h0c-13.85.1-27.7.11-41.56.11H594.43q-29,0-57.93-.07h0c-2.34,0-2.38,1.24-2.37,3q0,38.74,0,77.5v75c0,5.71,0,5.8,5.81,5.81q58.75,0,117.49.07h0c2.2,0,2.92-.77,2.9-2.88-.05-8.54-.09-17.08.06-25.62.05-2.85-.93-3.62-3.73-3.62h-.07c-26.14.12-52.29.05-78.43.14h-.07c-2.67,0-3.69-.6-3.64-3.57.21-10.21.08-20.42.08-30.62,0-4,0-4.17,3.76-4.17h.5c22.29,0,44.58,0,66.87.06h0c2,0,2.65-.64,2.62-2.68-.09-8-.17-16,0-24.06.08-3.06-.69-4-3.84-4h-.11c-22.29.15-44.58.05-66.87.16h-.06c-2.52,0-3.06-.84-3-3.18.13-7.6.19-15.21,0-22.81-.06-2.52.85-3.08,3-3.08h.2c4.72.07,9.44.09,14.16.09h9l50-.07h0l1,0c.85,0,1.56-.21,1.55-1.68,0-9,0-17.92-.06-26.88,0-1.85-.91-2.91-3.06-2.91Zm206.08.24c-8.88,0-14.6,5.64-14.7,14.58,0,4.48,0,9,0,13.43,0,3.85-.06,4,3.33,4h3.26l17.38,0c4.85,0,9.7,0,14.55-.07h.17c2.57,0,3.36.73,3.34,3.47-.12,20.41-.06,40.82-.06,61.24h0c0,20.62,0,41.24,0,61.85,0,2.08.42,2.87,2.63,2.87h.11q8.77-.09,17.56-.1,8.4,0,16.8.11h.2c2.58,0,3.33-.76,3.33-3.43-.09-40.83-.06-81.65-.15-122.48,0-2.65.63-3.54,3.28-3.54h.17c11.77.16,23.53,0,35.3.15H963c2.33,0,3-.71,2.95-3.1-.19-4.68,0-9.38-.06-14.06,0-9.49-5.4-14.91-14.86-14.91l-94.66,0ZM71.19,427H71c-3.12.07-6.24.09-9.36.09l-12.72,0h-.1c-9.76,0-15.4,5.7-15.4,15.55q0,35.16,0,70.3c0,24,0,47.91-.05,71.86,0,2.49.63,3.33,3.12,3.33h.16q9.21-.12,18.44-.13,7.8,0,15.61.11h.16c2.75,0,3.25-1,3.24-3.59-.09-20.52,0-41-.13-61.55,0-3,1-3.52,3.57-3.52h.12q12.87.07,25.73.07h25.2c4,0,4.06,0,4.06,4q0,30.63,0,61.24c0,1.88,0,3.36,2.61,3.36h.07q8.64-.09,17.27-.09,8.86,0,17.72.08h.08c2.41,0,2.88-1,2.87-3.18q-.08-36.09-.06-72.17c0-23.54,0-47.08,0-70.61,0-9.13-6.07-15-15.14-15l-12.79,0c-2.82,0-5.64,0-8.46,0h-2.07c-2.43,0-2,.29-2,3.93,0,16.87-.06,33.74.06,50.61,0,2.71-.7,3.53-3.4,3.53h-.1q-13-.1-25.94-.1-12.81,0-25.61.09h-.1c-2.73,0-3.62-.75-3.6-3.64.14-17.08,0-34.16.11-51.24,0-2.29-.48-3.22-2.86-3.22ZM35.94,619.46c-2.28,0-2.71,1.3-2.62,3.71.18,5,.06,10,0,15,0,7.12,0,7.12,7.2,7.12h914l4.46,0c1.33,0,2.65,0,4,.07h.34c1.8,0,2.58-.63,2.52-2.79-.15-6.25,0-12.5,0-18.75,0-3.78.24-4.26-1.51-4.26-.59,0-1.41.06-2.55.06h0q-231.09,0-462.18,0h-455c-1.61,0-3.23.09-4.84.09a26.43,26.43,0,0,1-3-.14,7.25,7.25,0,0,0-.89-.06ZM445.1,681.78a77.78,77.78,0,0,0-14.2,1.35,62,62,0,0,0-31.3,15.7c-17.25,15.95-24.18,36.27-24.5,59.25a89.72,89.72,0,0,0,4.83,30.71c7,19.57,19.72,34,39.72,41.08a71.89,71.89,0,0,0,24.08,4.27,71.06,71.06,0,0,0,26.81-5.38c14.6-5.89,25.55-16,33.76-29.32,1.13-1.83,1-2.83-1.05-3.84-8-4-15.89-8.11-23.81-12.21a3.34,3.34,0,0,0-1.49-.45c-.69,0-1.27.41-1.8,1.36a66.53,66.53,0,0,1-4,6.28A32.17,32.17,0,0,1,446,803.9a30.88,30.88,0,0,1-27.43-16.18c-10.42-19.09-10.56-39-1-58.44a31.36,31.36,0,0,1,28.26-18,32.15,32.15,0,0,1,18.9,6.24,34.82,34.82,0,0,1,11.08,13.65c.43.92.8,1.59,1.57,1.59a2.69,2.69,0,0,0,1.17-.35q12.51-6.33,25.12-12.47c1.45-.7,1.45-1.48.77-2.66-6.77-11.89-15.68-21.58-28.05-27.89a67.73,67.73,0,0,0-31.23-7.58Zm-148.6.87a94.07,94.07,0,0,0-24.16,3.29c-19.21,5.11-32.59,18.12-35,39.06-2.15,18.79,7.35,34.44,24.94,40.94,11.44,4.24,23.4,5.59,35.31,7.35,6.67,1,13.37,1.6,19.66,4.49,7.6,3.5,9.44,12.36,3.63,18.6-5.3,5.69-12.31,7.72-19.69,8.06-1.12,0-2.23.08-3.34.08-15.41,0-29-5.07-40.05-16.64a2.37,2.37,0,0,0-1.63-.94,2,2,0,0,0-1.06.35q-12.19,7.82-24.43,15.58c-1.17.74-1.38,1.42-.44,2.45,5.92,6.44,12.09,12.57,19.75,17,14.66,8.51,30.69,10.79,46.83,10.79h.2a127.68,127.68,0,0,0,24.49-3.3C343.32,824.27,359,807.5,360,784.26c.69-15.24-7.67-29.23-21.74-35-11.95-4.9-24.73-6.23-37.29-8.52-6.63-1.22-13.48-1.16-19.88-3.66-6-2.35-9.24-8-7.6-13.91a14.31,14.31,0,0,1,7.47-8.8A27.6,27.6,0,0,1,294.35,711a50,50,0,0,1,15.38,2.89c7.87,2.56,14.39,7.31,20.14,13.16a3.38,3.38,0,0,0,2.24,1.33,2.9,2.9,0,0,0,1.71-.69c7.54-5.53,15.17-10.94,22.82-16.32,1.52-1.08,1.41-1.8.14-3-17.89-16.81-37.94-25.76-60.28-25.76Zm609.21.14h-1.55c-16.59,0-29.09,2.45-40.59,9.15-19.89,11.58-24.5,34.76-18.75,52.11,4.11,12.38,14.1,18.92,25.87,23,13.18,4.53,27.11,5.24,40.74,7.46a42.4,42.4,0,0,1,9.92,2.66c4.29,1.83,7.75,4.48,8.28,9.6.61,5.8-2.41,9.81-6.87,12.73a33.79,33.79,0,0,1-19,5.23,56.41,56.41,0,0,1-7.53-.53c-12.59-1.68-23.84-6.4-32.67-15.93-.62-.68-1.2-1.25-2-1.25a2.28,2.28,0,0,0-1.2.42q-12.16,7.85-24.4,15.6c-1.32.84-1,1.44-.19,2.39,8.06,9.51,17.46,17.3,29.27,21.58a101.89,101.89,0,0,0,35,6.26,106.14,106.14,0,0,0,31.48-4.9c21.09-6.53,34.43-25,33.78-47-.44-15-7.66-25.92-21.52-31.93-11.85-5.13-24.68-6.4-37.25-8.62-6.64-1.17-13.5-1.2-19.9-3.66-7.23-2.78-10-9.08-6.89-16.09,1.63-3.65,4.81-6,8.4-7.56a27.64,27.64,0,0,1,11.43-2.32,48,48,0,0,1,10.29,1.27c10.09,2.23,18.38,7.58,25.58,14.77a3.13,3.13,0,0,0,2.14,1.2,3.58,3.58,0,0,0,2-.88c6.42-4.78,13-9.31,19.51-14,4.76-3.4,4.78-3.47.34-7.46-16.32-14.67-35.08-23.25-53.79-23.26Zm-183.15,3c-2.2,0-2.57.84-2.55,2.73.07,7.71.13,15.42,0,23.12-.05,2.31.56,2.92,2.76,2.92h.16c3.84,0,7.68-.06,11.51-.06h8.12c3.77,0,7.54,0,11.3-.06h.29c2.42,0,3.41.46,3.37,3.45-.19,18-.09,36-.09,54.05s.08,36-.08,54c0,3,.92,3.77,3.61,3.77h.27q7.24-.12,14.49-.13t14.25.13h.25c2.64,0,3.36-.82,3.35-3.61-.1-36,0-72.07-.13-108.1,0-2.79.74-3.63,3.41-3.63H797c4.36.07,8.71.09,13.06.09h8q4.95,0,9.88,0h.11c2.1,0,2.78-.68,2.76-2.81q-.15-11.55,0-23.12c0-2.21-.84-2.82-3-2.82h0q-27.18,0-54.36,0-25.47,0-50.93-.05Zm-541.79.36c-2.72,0-3.46.92-3.45,3.69.1,22.7.05,45.4.05,68.1h0c0,22.8,0,45.61-.06,68.41,0,2.51.62,3.41,3.13,3.41h.14c4.85-.07,9.71-.09,14.56-.09q7.71,0,15.43.07h.11c2,0,2.72-.52,2.72-2.74q-.1-68.73,0-137.45c0-2.56-.74-3.37-3.2-3.37h-.14q-7.52.09-15,.1-7,0-14-.13Zm342.26,0c-2.66,0-3.5.72-3.49,3.71.12,27.18,0,54.37,0,81.55a123.9,123.9,0,0,0,.66,14.66c2.29,19.31,12.24,33.11,30,40.8a74,74,0,0,0,29.61,6.26,77.05,77.05,0,0,0,18.94-2.42c12-3,22.74-8.44,31-18,9-10.51,12-23.22,12.17-36.53.37-28.95.18-57.9.32-86.86,0-2.59-1-3.09-3.18-3.09H639q-6,0-12,0H610.54c-4.4,0-4.41,0-4.41,4.5q0,38,0,75.93c0,5.42,0,10.85-.36,16.24-.6,8.41-3.68,15.51-12.38,18.44a37.91,37.91,0,0,1-12.15,2.06,36.63,36.63,0,0,1-15.77-3.65,15,15,0,0,1-8.52-10.5,46.52,46.52,0,0,1-1-11.16q0-20.94,0-41.87c0-15.52-.08-31,.07-46.56,0-2.76-.79-3.47-3.32-3.47h-.21q-7,.09-14,.1-7.55,0-15.09-.14Zm-486.14,0c-2.33,0-3.33.77-3,3.19a14.67,14.67,0,0,1,0,1.87q0,67.62-.06,135.26c0,2.66.86,3.24,3.3,3.24h.07q11.76,0,23.53,0H79.8q9.44,0,18.88,0c7.39,0,14.79,0,22.09-1.46,16.52-3.23,29.17-11.24,34.64-28.08,5.23-16.08-1.73-35.25-20.63-41.13-3.74-1.16-7.56-1.92-11.44-3.34,1.35-.4,2.69-.82,4-1.19a37.32,37.32,0,0,0,12.53-6c15.69-11.54,15.16-38.38.81-51.05-8-7.09-17.78-9.53-28.12-10.38-8.56-.71-17.13-.86-25.7-.86-6.36,0-12.72.08-19.08.08-1.83,0-3.65,0-5.48,0-2.12,0-4.25,0-6.37,0l-10.42,0c-2.84,0-5.68,0-8.51-.05Zm33.93,56.88c-2,0-2.83-.66-2.8-2.85.11-8,.14-16,0-24,0-2.34.68-3,2.79-3h.4c2.12.08,4.25.1,6.47.1,3.08,0,6.31,0,9.93,0,.92.07,1.88.09,2.86.09,2.21,0,4.55-.12,7-.12a34,34,0,0,1,9.26,1.06c6.19,1.74,9.23,5.72,9.58,12.56s-2.59,11.74-8.13,14c-4.63,1.93-9.54,2-14.41,2.14-3.13.06-6.27.08-9.4.08h-7l-6.42,0Zm17.56,26L94,769a113.07,113.07,0,0,1,11.49.46c6.34.66,11.64,3.25,13.77,9.54,2.26,6.66,2.31,13.43-3,19-3.58,3.71-8.52,4.77-13.38,5.12s-9.89.45-14.83.45c-4.43,0-8.85-.07-13.27-.07l-4.65,0h-.08c-1.68,0-2-.83-2-2.28,0-10,.11-20,0-30,0-2.16,1.2-2.26,2.72-2.26H88.38Zm613.17-82.87h-.2c-3.75.06-7.49.08-11.24.08-5.52,0-11,0-16.55,0h-.35c-4.58,0-4.62.11-4.62,4.87q0,67.76-.06,135.52c0,2.46.75,3.13,3,3.13h.14q7.62-.09,15.23-.09,7.06,0,14.12.1h.24c2.52,0,3.42-.62,3.4-3.52-.14-22.69-.08-45.38-.08-68.07h0c0-22.9,0-45.8.06-68.69,0-2.57-.72-3.29-3.14-3.29ZM35.33,870.44c-1.55,0-2,.67-2,2.34.09,5.72,0,11.45,0,17.18,0,6,0,6,6,6H956.44l4.18,0c1,0,2,0,3,.07h.32c1.54,0,2-.71,2-2.34-.08-5.93,0-11.87,0-17.8,0-5.39,0-5.39-5.39-5.39H39.61c-1.33,0-2.65,0-4-.08Z" transform="translate(-33.31 -102.9)"/></svg>